<svg
    width="318"
    height="331"
    viewBox="0 0 318 331"
    fill="none"
    xmlns="http://www.w3.org/2000/svg"
>
    <path
        d="M12.3225 188.256C11.5275 205.91 23.8501 225.77 39.7501 231.976C63.7326 241.354 79.8976 217.908 94.0751 201.772C104.94 189.36 118.588 178.05 134.487 175.844C143.762 174.465 153.037 176.258 162.312 177.637C185.765 181.223 209.747 183.429 232.802 178.05C255.857 172.672 278.117 159.432 290.307 138.33C293.355 132.952 295.74 127.159 296.667 121.091C299.052 107.713 294.945 93.9212 288.717 82.1983C279.972 65.5104 266.855 51.305 250.955 41.6508C236.247 32.8242 218.757 27.7212 201.93 31.1692C178.08 36.1342 160.457 56.8217 145.087 76.6817C129.983 96.4037 113.288 117.505 89.7026 124.263C82.4151 126.332 74.7301 126.745 67.5751 128.814C45.7126 134.607 25.3076 152.26 16.0326 173.775C13.7801 178.878 12.72 183.705 12.3225 188.256V188.256Z"
        fill="#F5F5F5"
    />
    <path
        d="M290.042 136.675C286.332 117.781 281.43 99.1621 280.37 95.3004C280.37 94.335 280.105 93.5075 279.575 92.68C278.25 90.6112 275.6 86.06 227.37 74.8887C202.857 69.0962 176.092 63.9933 166.42 62.7521C164.432 62.4762 162.047 62.3383 159.265 62.2004L155.952 59.7179C149.46 50.3396 138.727 44.8229 127.597 45.5125L80.0295 48.2708C74.067 48.5467 69.032 52.1325 66.382 57.7871C63.8645 63.4417 64.3945 69.7858 67.972 74.7508L75.127 84.9567C76.8495 97.645 83.872 121.642 94.472 155.984C96.1945 161.638 97.652 166.19 98.3145 168.534C98.8445 170.603 100.567 172.396 103.35 173.913C106.265 186.601 119.912 246.457 126.67 258.18C127.465 259.697 128.922 261.076 130.777 262.317C128.127 264.11 126.405 267.558 126.405 271.42C126.405 277.213 130.38 282.04 135.415 282.04C140.317 282.04 144.425 277.35 144.425 271.42C144.425 270.041 144.16 268.8 143.762 267.558C156.085 271.006 174.37 273.489 197.027 276.247C209.88 277.764 220.877 279.143 226.84 280.66C228.562 281.074 230.417 281.35 232.272 281.626C231.345 283.281 230.815 285.212 230.815 287.28C230.815 293.073 234.79 297.9 239.825 297.9C244.727 297.9 248.835 293.211 248.835 287.28C248.835 285.074 248.305 283.005 247.245 281.212C254.665 280.109 261.82 277.902 267.65 274.868C267.252 275.971 267.12 277.35 267.12 278.592C267.12 284.384 271.095 289.211 276.13 289.211C281.032 289.211 285.14 284.522 285.14 278.592C285.14 273.213 281.827 268.937 277.455 268.11C279.31 266.179 280.767 264.248 281.43 262.317C282.092 260.662 281.827 259.007 281.032 257.49C277.587 251.422 259.7 248.25 211.072 242.32C194.245 240.251 176.887 238.182 173.575 236.527C169.202 234.596 163.637 211.012 161.12 184.119C168.407 184.808 176.357 185.498 185.102 186.187C199.147 187.291 211.337 188.256 216.637 189.36C223.925 190.739 235.055 191.428 246.715 191.428C264.337 191.428 282.887 189.773 290.042 186.463C295.342 183.981 297.595 174.465 290.042 136.675ZM225.515 182.602L223.527 172.947C226.972 172.947 232.007 172.534 237.705 172.12L239.162 183.429C234.26 183.291 229.622 183.015 225.515 182.602ZM143.895 174.465L141.642 162.19C148.135 163.155 155.025 164.121 161.915 165.086L164.035 176.533C157.145 175.844 150.387 175.154 143.895 174.465ZM105.735 166.052C105.205 164.121 104.145 160.811 102.952 156.673C106.132 157.087 111.3 157.915 117.66 158.742L119.78 170.741C108.65 168.534 106.265 166.603 105.735 166.052ZM121.767 171.155L119.515 159.018C125.477 159.845 132.367 160.811 139.655 161.914L141.907 174.189C139.257 173.913 136.74 173.499 134.222 173.223C129.187 172.534 125.08 171.844 121.767 171.155ZM87.847 105.782C92.352 106.61 99.6395 107.989 108.65 109.644L112.757 132.4C104.807 131.297 98.447 130.331 94.737 129.78C92.352 121.918 89.967 113.505 87.847 105.782ZM274.54 103.437C275.865 108.54 277.057 113.505 278.25 118.332C275.07 118.608 269.107 119.16 261.82 119.85L259.7 103.989C266.192 103.713 271.36 103.575 274.54 103.437ZM155.29 117.781C163.372 119.16 171.455 120.401 178.875 121.367L182.585 141.778C174.9 140.813 166.95 139.847 159 138.744L155.29 117.781ZM157.145 138.468C150.255 137.503 143.497 136.675 136.872 135.71L132.897 113.919C139.522 115.022 146.412 116.264 153.17 117.367L157.145 138.468ZM180.995 121.642C190.402 122.884 198.882 123.987 205.507 124.401L209.747 144.95C202.46 144.123 193.847 143.157 184.705 142.054L180.995 121.642ZM213.457 124.815C218.36 124.815 224.72 124.539 231.61 124.125L234.392 146.192C229.092 146.33 223.527 146.192 217.83 145.778L213.457 124.815ZM233.465 123.987C242.342 123.435 251.882 122.608 259.965 121.918L262.747 143.709C255.062 144.812 246.052 145.778 236.247 146.054L233.465 123.987ZM261.952 121.78C269.505 121.091 275.6 120.539 278.647 120.263C280.237 127.297 281.695 133.917 282.887 139.985C279.177 140.951 272.817 142.33 264.735 143.571L261.952 121.78ZM257.712 103.989L259.7 119.987C251.485 120.677 241.945 121.505 233.2 122.056L231.08 104.955C240.487 104.679 249.895 104.265 257.712 103.989ZM229.092 105.092L231.212 122.194C224.19 122.608 217.83 122.884 212.927 122.884L209.35 105.92C215.71 105.506 222.467 105.368 229.092 105.092ZM201.267 106.058H201.665L205.11 122.47C198.485 121.918 190.005 120.953 180.73 119.574L177.947 104.127C187.222 105.368 195.437 106.058 201.267 106.058ZM175.827 103.851L178.61 119.298C171.057 118.195 163.107 116.953 155.025 115.712L152.242 100.127C160.325 101.507 168.407 102.886 175.827 103.851ZM150.122 99.8517L152.905 115.436C146.015 114.333 139.125 113.092 132.632 111.988L129.717 96.2658C136.475 97.3692 143.365 98.6104 150.122 99.8517ZM127.73 95.7142L130.645 111.575C123.357 110.333 116.467 109.092 110.372 107.989L107.325 91.7146C113.685 93.0937 120.575 94.335 127.73 95.7142ZM105.337 91.3008L108.252 107.575C98.977 105.92 91.557 104.403 87.317 103.575C85.5945 97.0933 84.137 91.3008 83.342 86.7496C88.377 87.8529 96.1945 89.5079 105.337 91.3008ZM110.637 110.057C116.865 111.161 123.755 112.402 130.91 113.643L134.885 135.434C127.597 134.469 120.707 133.503 114.745 132.538L110.637 110.057ZM135.282 137.503L139.257 159.845C131.837 158.742 124.947 157.777 119.117 156.949L115.142 134.745C121.237 135.572 127.995 136.537 135.282 137.503ZM141.377 160.121L137.402 137.779C143.895 138.744 150.785 139.572 157.675 140.537L161.782 162.88C154.76 162.052 147.87 161.087 141.377 160.121ZM159.53 140.813C167.48 141.916 175.43 142.882 183.115 143.847L187.222 166.465C179.802 165.5 171.852 164.259 163.637 163.155L159.53 140.813ZM184.97 144.123C194.245 145.226 202.857 146.33 210.145 147.019L215.047 170.327C209.482 169.637 200.207 168.396 189.21 166.879L184.97 144.123ZM222.997 170.879L218.227 147.709C222.6 147.985 226.972 148.122 231.212 148.122H234.525L237.307 170.189C231.477 170.603 226.442 170.879 222.997 170.879ZM236.512 148.122C246.317 147.847 255.327 146.881 263.012 145.778L265.795 167.707C257.182 168.534 247.51 169.362 239.295 170.051L236.512 148.122ZM264.867 145.502C272.95 144.261 279.31 142.882 283.152 141.916C285.007 151.432 286.067 159.432 286.73 165.638C282.755 166.052 275.732 166.741 267.782 167.569L264.867 145.502ZM270.432 95.5762C256.785 95.99 225.25 97.0933 203.122 98.0587C180.597 99.0242 102.952 82.75 83.077 78.4746C89.702 73.9233 130.247 68.9583 156.747 70.0617C157.675 70.4754 158.602 70.4754 159.397 70.1996C161.517 70.3375 163.637 70.4754 165.492 70.7512C185.367 73.2337 254.665 88.1287 270.432 95.5762ZM73.537 61.0971C74.862 58.2008 77.512 56.4079 80.5595 56.1321L128.127 53.3737C135.547 52.96 142.835 56.1321 147.87 61.9246C137.932 62.0625 126.272 62.6142 115.54 63.5796C104.675 64.6829 83.4745 66.7517 76.8495 73.5096L74.332 69.9237C72.477 67.3033 72.212 63.9933 73.537 61.0971ZM95.267 131.848C99.242 132.4 105.47 133.365 113.022 134.469L116.997 156.673C110.372 155.708 105.072 155.018 102.025 154.605C101.892 154.191 101.76 153.915 101.627 153.501C100.435 148.536 97.917 140.675 95.267 131.848ZM156.482 209.358C161.252 236.665 166.287 242.32 170.262 244.113C170.527 244.25 170.792 244.388 171.19 244.526C168.54 246.319 166.817 249.767 166.817 253.629C166.817 259.421 170.792 264.248 175.827 264.248C180.73 264.248 184.837 259.559 184.837 253.629C184.837 251.146 184.042 248.802 182.85 247.009C189.475 247.974 198.485 249.215 210.012 250.595C229.622 252.939 265.132 257.353 273.082 261.352C267.915 268.248 245.787 277.35 228.562 273.075C222.07 271.558 210.807 270.041 197.822 268.524C176.622 265.903 137.005 260.938 133.295 254.318C128.26 245.767 117.395 200.945 112.095 177.499C120.972 179.981 134.355 181.912 153.17 183.705C153.567 188.256 154.627 198.6 156.482 209.358ZM166.022 176.671L164.035 165.362C172.25 166.465 180.2 167.569 187.62 168.672L189.475 178.74C188.282 178.602 186.957 178.602 185.765 178.464C179.272 177.775 172.647 177.223 166.022 176.671ZM191.197 178.74L189.475 168.81C200.737 170.327 210.145 171.568 215.445 172.258L217.3 181.36C212.132 180.533 202.99 179.705 191.197 178.74ZM241.017 183.429L239.56 171.982C247.907 171.292 257.447 170.465 266.06 169.637L267.65 182.602C259.567 183.291 250.027 183.567 241.017 183.429ZM286.332 179.43C283.152 180.809 277.057 181.774 269.637 182.464L268.047 169.5C275.997 168.672 282.887 167.982 286.995 167.569C287.392 173.913 287.127 177.913 286.332 179.43Z"
        fill="#CD580E"
    />
    <path
        d="M83.0773 251.974C82.2823 228.39 91.5573 220.942 99.6398 220.942C106.927 220.805 115.805 221.77 124.285 215.84C125.08 215.288 125.08 214.047 124.285 213.495C118.587 210.323 111.3 207.427 104.94 208.254C97.1223 209.357 91.0273 215.15 87.4498 218.874C86.5223 219.977 84.9323 218.736 85.5948 217.357C88.2448 210.875 92.6173 208.53 96.4598 204.806C101.097 200.393 108.65 197.635 113.685 193.773C121.37 187.567 126.14 178.878 130.645 169.775C131.175 168.948 130.512 167.845 129.452 167.845C121.105 168.396 115.805 170.465 108.915 176.809C103.085 182.326 93.4123 198.324 88.5098 203.703C87.5823 204.668 85.9923 203.841 86.5223 202.6C89.4373 191.566 100.7 177.361 105.602 165.224C112.095 149.502 110.505 137.089 105.867 125.366C105.47 124.401 103.88 124.263 103.615 125.366C100.435 140.675 89.3048 143.709 85.4623 181.222C85.1973 183.843 84.6673 190.049 83.8723 190.739C82.6798 191.842 82.2823 190.739 81.6198 189.222C77.7773 178.74 80.8248 124.125 52.3373 106.196C51.2773 105.644 50.0848 106.472 50.4823 107.575C58.9623 139.434 38.2923 143.433 79.1023 201.083C79.2348 201.358 79.6323 201.91 79.7648 202.186C80.8248 205.082 78.9698 205.634 78.0423 205.496C72.8748 204.806 52.9998 167.431 13.2497 172.258C12.1897 172.258 11.7922 173.637 12.4547 174.465C22.1273 185.498 32.3298 196.118 45.3148 201.772C53.2648 205.358 63.8648 206.047 71.2848 210.875C77.9098 215.15 81.4873 224.115 79.3673 231.838C78.9698 232.941 77.6448 233.355 77.2473 232.252C73.5373 225.632 64.6598 220.391 57.7698 218.184C50.3498 215.84 44.2548 216.115 36.8348 215.978C35.7748 215.978 35.2448 217.219 35.7748 218.046C51.2773 241.078 73.6698 222.873 76.8498 250.181C76.8498 250.595 77.2473 251.146 77.6448 251.284C82.0173 252.525 86.2573 253.767 86.1248 248.94L83.0773 251.974Z"
        fill="#338E1C"
    />
    <path
        d="M101.76 248.388L57.9022 246.871C55.9147 246.733 56.0472 248.526 56.3122 250.457L64.2622 292.521C64.5272 294.038 65.9847 295.28 67.4422 295.142L88.9072 295.693C90.2322 295.555 91.1597 294.59 91.5572 293.349L102.687 250.181C103.085 249.353 102.555 248.526 101.76 248.388Z"
        fill="#DA3404"
    />
</svg>
