<svg width="12" height="18" viewBox="0 0 12 18" fill="none" xmlns="http://www.w3.org/2000/svg">
<path d="M11.5 6C11.5 6.71214 11.1674 7.75987 10.6076 8.98738C10.0567 10.1953 9.318 11.5103 8.57306 12.7324C7.82915 13.9528 7.08445 15.0717 6.52531 15.8861C6.32266 16.1812 6.14459 16.4361 6 16.6409C5.85541 16.4361 5.67734 16.1812 5.47469 15.8861C4.91555 15.0717 4.17085 13.9528 3.42693 12.7324C2.682 11.5103 1.94329 10.1953 1.39243 8.98738C0.832638 7.75987 0.5 6.71214 0.5 6C0.5 2.96243 2.96243 0.5 6 0.5C9.03757 0.5 11.5 2.96243 11.5 6Z" stroke="#D15D0D"/>
<circle cx="6" cy="6" r="2.5" stroke="#D15D0D"/>
</svg>
