<svg xmlns="http://www.w3.org/2000/svg" fill="none" viewBox="0 0 31 31"><path fill="#475993" d="M26.823 0H4.178A4.177 4.177 0 0 0 0 4.177v22.645A4.177 4.177 0 0 0 4.178 31h11.168l.019-11.078h-2.878a.68.68 0 0 1-.679-.676l-.014-3.571a.68.68 0 0 1 .68-.682h2.872v-3.45c0-4.004 2.445-6.184 6.017-6.184h2.931a.68.68 0 0 1 .68.679v3.01a.68.68 0 0 1-.68.68h-1.798c-1.942 0-2.319.924-2.319 2.278v2.987h4.269c.406 0 .722.355.674.76l-.423 3.57a.68.68 0 0 1-.674.6h-3.827L20.177 31h6.646A4.177 4.177 0 0 0 31 26.823V4.177A4.177 4.177 0 0 0 26.823 0Z"/></svg>
