<svg xmlns="http://www.w3.org/2000/svg" fill="none" viewBox="0 0 31 31"><path fill="#0F993E" d="M23.25 28.924v-.008l-3.036-5.256a9.364 9.364 0 0 1-4.714 1.275V31c2.812 0 5.465-.757 7.75-2.076Z"/><path fill="#12B347" d="M15.5 24.935c-3.485 0-6.527-1.904-8.16-4.722l-5.256 3.03C4.758 27.878 9.768 31 15.5 31c2.812 0 5.465-.757 7.75-2.076v-.008l-3.036-5.256a9.364 9.364 0 0 1-4.714 1.275Z"/><path fill="#167EE6" d="M29.83 12.805H17.184a1.01 1.01 0 0 0-1.011 1.01v4.04c0 .558.452 1.01 1.01 1.01h7.121a9.506 9.506 0 0 1-4.091 4.796l3.036 5.256C28.12 26.1 31 21.157 31 15.625c0-.788-.058-1.351-.174-1.985a1.015 1.015 0 0 0-.997-.835Z"/><path fill="#FF4B26" d="M15.5 6.065c2.272 0 4.36.808 5.99 2.15.402.332.987.308 1.355-.06l2.862-2.862a1.019 1.019 0 0 0-.058-1.49A15.454 15.454 0 0 0 15.5 0C9.769 0 4.758 3.122 2.084 7.757l5.255 3.03c1.634-2.818 4.676-4.722 8.161-4.722Z"/><path fill="#FFD500" d="M6.065 15.5c0-1.717.469-3.325 1.274-4.713l-5.256-3.03A15.34 15.34 0 0 0 0 15.5c0 2.819.757 5.465 2.083 7.743l5.256-3.03A9.365 9.365 0 0 1 6.065 15.5Z"/></svg>
