<svg xmlns="http://www.w3.org/2000/svg" fill="none" viewBox="0 0 31 31"><path fill="url(#paint0_radial_129_45)" d="M5.425 31h20.15A5.425 5.425 0 0 0 31 25.575V5.425A5.425 5.425 0 0 0 25.575 0H5.425A5.425 5.425 0 0 0 0 5.425v20.15A5.425 5.425 0 0 0 5.425 31Z"/><path fill="#fff" d="M21.313 27.125H9.688a5.813 5.813 0 0 1-5.813-5.813V9.688a5.813 5.813 0 0 1 5.813-5.812h11.624a5.813 5.813 0 0 1 5.813 5.813v11.624a5.813 5.813 0 0 1-5.813 5.813ZM9.688 6.2A3.492 3.492 0 0 0 6.2 9.687v11.626A3.492 3.492 0 0 0 9.687 24.8h11.626a3.492 3.492 0 0 0 3.487-3.488V9.688A3.492 3.492 0 0 0 21.312 6.2H9.688Z"/><path fill="#fff" d="M15.5 22.088a6.587 6.587 0 1 1 0-13.174 6.587 6.587 0 0 1 0 13.174Zm0-10.85a4.262 4.262 0 1 0 0 8.524 4.262 4.262 0 0 0 0-8.524ZM22.087 10.463a1.162 1.162 0 1 0 0-2.325 1.162 1.162 0 0 0 0 2.325Z"/><defs><radialGradient id="paint0_radial_129_45" cx="0" cy="0" r="1" gradientTransform="rotate(180 -.312 15.185) scale(71.5882)" gradientUnits="userSpaceOnUse"><stop stop-color="#F9ED32"/><stop offset=".36" stop-color="#EE2A7B"/><stop offset=".44" stop-color="#D22A8A"/><stop offset=".6" stop-color="#8B2AB2"/><stop offset=".83" stop-color="#1B2AF0"/><stop offset=".88" stop-color="#002AFF"/></radialGradient></defs></svg>
