<svg xmlns="http://www.w3.org/2000/svg" fill="none" viewBox="0 0 89 89"><g filter="url(#filter0_d_403_122)"><rect width="37" height="37" x="26" y="26" fill="#fff" rx="4"/></g><g fill="#D15D0D" clip-path="url(#clip0_403_122)"><path d="M40.386 49.5c-.213 0-.386-.194-.386-.432V38.633c0-.9.654-1.633 1.458-1.633h6.084c.804 0 1.458.733 1.458 1.633v9.064c0 .239-.121-.644-.334-.644-.213 0-.438 2.436-.438.394v-8.814c0-.424-.308-.769-.686-.769h-6.084c-.378 0-.686.345-.686.769v10.435c0 .239-.173.432-.386.432Z"/><path d="M47.542 52h-6.084C40.654 52 40 51.276 40 50.385v-1.59c0-.236.173-.428.386-.428h8.228c.213 0 .386.192.386.428v1.59c0 .89-.654 1.615-1.458 1.615Zm-6.77-2.778v1.163c0 .42.308.76.686.76h6.084c.378 0 .686-.34.686-.76v-1.163h-7.456Z"/><path d="M45.136 50.604h-1.239c-.213 0-.386-.191-.386-.427s.173-.428.386-.428h1.24c.212 0 .385.192.385.428s-.173.427-.386.427ZM48.614 49.754c-.213 0-.386-.191-.386-.427V47.37c0-.236.173-.427.386-.427.214 0 .386.191.386.427v1.957c0 .236-.172.427-.386.427Z"/></g><defs><clipPath id="clip0_403_122"><path fill="#fff" d="M40 37h9v15h-9z"/></clipPath><filter id="filter0_d_403_122" width="89" height="89" x="0" y="0" color-interpolation-filters="sRGB" filterUnits="userSpaceOnUse"><feFlood flood-opacity="0" result="BackgroundImageFix"/><feColorMatrix in="SourceAlpha" result="hardAlpha" values="0 0 0 0 0 0 0 0 0 0 0 0 0 0 0 0 0 0 127 0"/><feOffset/><feGaussianBlur stdDeviation="13"/><feComposite in2="hardAlpha" operator="out"/><feColorMatrix values="0 0 0 0 0 0 0 0 0 0 0 0 0 0 0 0 0 0 0.25 0"/><feBlend in2="BackgroundImageFix" result="effect1_dropShadow_403_122"/><feBlend in="SourceGraphic" in2="effect1_dropShadow_403_122" result="shape"/></filter></defs></svg>
