<svg xmlns="http://www.w3.org/2000/svg" fill="none" viewBox="0 0 89 89"><g filter="url(#filter0_d_403_124)"><rect width="37" height="37" x="26" y="26" fill="#fff" rx="4"/></g><path fill="#D15D0D" d="M44.5 55.45c-6.325 0-11.5-5.051-11.5-11.225C33 38.051 38.175 33 44.5 33S56 38.051 56 44.225c0 6.174-5.175 11.225-11.5 11.225Zm0-21.047c-5.534 0-10.063 4.42-10.063 9.822 0 5.402 4.529 9.822 10.063 9.822 5.534 0 10.063-4.42 10.063-9.822 0-5.402-4.529-9.822-10.063-9.822Z"/><path fill="#D15D0D" d="M43.781 55.45a.66.66 0 0 1-.503-.21c-3.378-3.228-5.247-7.086-5.175-11.015 0-3.999 1.797-7.787 5.175-11.014a.707.707 0 0 1 1.006 0 .667.667 0 0 1 0 .982c-3.09 2.946-4.743 6.384-4.743 9.962 0 3.578 1.653 7.086 4.743 10.032a.667.667 0 0 1 0 .982c-.143.21-.287.281-.503.281Z"/><path fill="#D15D0D" d="M45.29 55.45a.66.66 0 0 1-.503-.21.667.667 0 0 1 0-.983c3.091-3.016 4.744-6.454 4.744-10.032 0-3.578-1.653-7.016-4.744-9.962a.667.667 0 0 1 0-.982.707.707 0 0 1 1.007 0c3.378 3.227 5.175 7.015 5.175 11.014 0 4-1.797 7.788-5.175 11.085-.144 0-.36.07-.503.07Z"/><path fill="#D15D0D" d="M44.5 55.45c-.431 0-.719-.28-.719-.702V33.702c0-.421.288-.702.719-.702s.719.28.719.702v21.046c0 .421-.288.702-.719.702Z"/><path fill="#D15D0D" d="M55.281 44.927H33.72c-.431 0-.719-.281-.719-.702 0-.42.288-.702.719-.702H55.28c.431 0 .719.281.719.702 0 .42-.288.702-.719.702ZM53.844 40.016H35.156c-.431 0-.718-.281-.718-.702 0-.42.287-.702.718-.702h18.688c.431 0 .718.281.718.702 0 .421-.287.702-.718.702ZM53.844 49.837H35.156c-.431 0-.718-.28-.718-.701 0-.421.287-.702.718-.702h18.688c.431 0 .718.281.718.702 0 .42-.287.701-.718.701Z"/><defs><filter id="filter0_d_403_124" width="89" height="89" x="0" y="0" color-interpolation-filters="sRGB" filterUnits="userSpaceOnUse"><feFlood flood-opacity="0" result="BackgroundImageFix"/><feColorMatrix in="SourceAlpha" result="hardAlpha" values="0 0 0 0 0 0 0 0 0 0 0 0 0 0 0 0 0 0 127 0"/><feOffset/><feGaussianBlur stdDeviation="13"/><feComposite in2="hardAlpha" operator="out"/><feColorMatrix values="0 0 0 0 0 0 0 0 0 0 0 0 0 0 0 0 0 0 0.25 0"/><feBlend in2="BackgroundImageFix" result="effect1_dropShadow_403_124"/><feBlend in="SourceGraphic" in2="effect1_dropShadow_403_124" result="shape"/></filter></defs></svg>
