<svg xmlns="http://www.w3.org/2000/svg" fill="none" viewBox="0 0 31 31"><path fill="#37AEE2" d="M30.99 0H.01A.01.01 0 0 0 0 .01v30.98c0 .006.004.01.01.01h30.98a.01.01 0 0 0 .01-.01V.01a.01.01 0 0 0-.01-.01Z"/><path fill="#C8DAEA" d="M12.049 24.46c-.666 0-.606-.241-.787-.847l-1.938-6.357 14.834-8.719"/><path fill="#A9C9DD" d="M12.049 24.46c.424 0 .666-.241.969-.483l2.724-2.604-3.39-2.059"/><path fill="#F6FBFE" d="m12.351 19.314 8.174 5.995c.848.544 1.575.242 1.817-.848l3.33-15.621c.303-1.332-.545-1.938-1.453-1.514L4.783 14.834c-1.271.484-1.271 1.271-.242 1.574l5.025 1.574 11.504-7.326c.545-.303 1.03-.181.666.242"/></svg>
