<svg
    width="31"
    height="31"
    viewBox="0 0 31 31"
    fill="none"
    xmlns="http://www.w3.org/2000/svg"
>
    <path
        d="M5.425 31L25.575 31C28.5711 31 31 28.5711 31 25.575L31 5.425C31 2.42886 28.5711 0 25.575 0L5.425 0C2.42886 0 0 2.42886 0 5.425L0 25.575C0 28.5711 2.42886 31 5.425 31Z"
        fill="url(#paint0_radial_129_45)"
    />
    <path
        d="M21.3125 27.125H9.6875C8.14593 27.125 6.6675 26.5126 5.57744 25.4226C4.48739 24.3325 3.875 22.8541 3.875 21.3125V9.6875C3.875 8.14593 4.48739 6.6675 5.57744 5.57744C6.6675 4.48739 8.14593 3.875 9.6875 3.875H21.3125C22.8541 3.875 24.3325 4.48739 25.4226 5.57744C26.5126 6.6675 27.125 8.14593 27.125 9.6875V21.3125C27.125 22.8541 26.5126 24.3325 25.4226 25.4226C24.3325 26.5126 22.8541 27.125 21.3125 27.125ZM9.6875 6.2C8.76295 6.20128 7.87664 6.56913 7.22288 7.22288C6.56913 7.87664 6.20128 8.76295 6.2 9.6875V21.3125C6.20128 22.237 6.56913 23.1234 7.22288 23.7771C7.87664 24.4309 8.76295 24.7987 9.6875 24.8H21.3125C22.237 24.7987 23.1234 24.4309 23.7771 23.7771C24.4309 23.1234 24.7987 22.237 24.8 21.3125V9.6875C24.7987 8.76295 24.4309 7.87664 23.7771 7.22288C23.1234 6.56913 22.237 6.20128 21.3125 6.2H9.6875Z"
        fill="white"
    />
    <path
        d="M15.5001 22.0876C14.1972 22.0876 12.9236 21.7013 11.8403 20.9774C10.757 20.2536 9.91264 19.2247 9.41404 18.021C8.91545 16.8173 8.785 15.4928 9.03918 14.2149C9.29336 12.9371 9.92076 11.7633 10.842 10.842C11.7633 9.92076 12.9371 9.29336 14.2149 9.03918C15.4928 8.785 16.8173 8.91545 18.021 9.41404C19.2247 9.91264 20.2536 10.757 20.9774 11.8403C21.7013 12.9236 22.0876 14.1972 22.0876 15.5001C22.0863 17.2468 21.3919 18.9216 20.1567 20.1567C18.9216 21.3919 17.2468 22.0863 15.5001 22.0876ZM15.5001 11.2376C14.6571 11.2376 13.8329 11.4876 13.132 11.956C12.431 12.4243 11.8847 13.09 11.5621 13.8689C11.2394 14.6478 11.155 15.5048 11.3195 16.3317C11.484 17.1585 11.8899 17.918 12.4861 18.5141C13.0822 19.1103 13.8417 19.5162 14.6685 19.6807C15.4954 19.8452 16.3524 19.7608 17.1313 19.4381C17.9102 19.1155 18.5759 18.5692 19.0442 17.8682C19.5126 17.1673 19.7626 16.3431 19.7626 15.5001C19.7613 14.37 19.3118 13.2866 18.5127 12.4875C17.7136 11.6884 16.6302 11.2389 15.5001 11.2376Z"
        fill="white"
    />
    <path
        d="M22.0875 10.4625C22.7296 10.4625 23.25 9.94198 23.25 9.29995C23.25 8.65792 22.7296 8.13745 22.0875 8.13745C21.4455 8.13745 20.925 8.65792 20.925 9.29995C20.925 9.94198 21.4455 10.4625 22.0875 10.4625Z"
        fill="white"
    />
    <defs>
        <radialGradient
            id="paint0_radial_129_45"
            cx="0"
            cy="0"
            r="1"
            gradientUnits="userSpaceOnUse"
            gradientTransform="translate(-0.623631 30.3703) rotate(180) scale(71.5882)"
        >
            <stop stop-color="#F9ED32" />
            <stop offset="0.36" stop-color="#EE2A7B" />
            <stop offset="0.44" stop-color="#D22A8A" />
            <stop offset="0.6" stop-color="#8B2AB2" />
            <stop offset="0.83" stop-color="#1B2AF0" />
            <stop offset="0.88" stop-color="#002AFF" />
        </radialGradient>
    </defs>
</svg>
