<svg
    width="89"
    height="89"
    viewBox="0 0 89 89"
    fill="none"
    xmlns="http://www.w3.org/2000/svg"
>
    <g filter="url(#filter0_d_403_124)">
        <rect x="26" y="26" width="37" height="37" rx="4" fill="white" />
    </g>
    <path
        d="M44.5 55.45C38.175 55.45 33 50.3988 33 44.225C33 38.0513 38.175 33 44.5 33C50.8249 33 55.9999 38.0512 55.9999 44.225C55.9999 50.3987 50.8249 55.45 44.5 55.45ZM44.5 34.4031C38.9656 34.4031 34.4374 38.823 34.4374 44.225C34.4374 49.6271 38.9655 54.0469 44.5 54.0469C50.0344 54.0469 54.5625 49.6271 54.5625 44.225C54.5625 38.823 50.0343 34.4031 44.5 34.4031Z"
        fill="#D15D0D"
    />
    <path
        d="M43.7812 55.45C43.5656 55.45 43.4218 55.3798 43.278 55.2396C39.9 52.0123 38.0312 48.1538 38.1031 44.225C38.1031 40.2262 39.9 36.4377 43.278 33.2105C43.5655 32.9299 43.9968 32.9299 44.2843 33.2105C44.5718 33.4911 44.5718 33.9121 44.2843 34.1927C41.1937 37.1392 39.5405 40.5769 39.5405 44.1549C39.5405 47.7329 41.1936 51.2406 44.2843 54.1872C44.5718 54.4678 44.5718 54.8888 44.2843 55.1694C44.1406 55.3798 43.9969 55.45 43.7812 55.45Z"
        fill="#D15D0D"
    />
    <path
        d="M45.2906 55.45C45.075 55.45 44.9312 55.3798 44.7874 55.2396C44.4999 54.9589 44.4999 54.538 44.7874 54.2574C47.878 51.2407 49.5312 47.803 49.5312 44.225C49.5312 40.647 47.8781 37.2094 44.7874 34.2629C44.4999 33.9822 44.4999 33.5613 44.7874 33.2807C45.0749 33.0001 45.5061 33.0001 45.7936 33.2807C49.1717 36.5079 50.9686 40.2963 50.9686 44.2952C50.9686 48.2941 49.1717 52.0825 45.7936 55.3799C45.6499 55.3798 45.4343 55.45 45.2906 55.45Z"
        fill="#D15D0D"
    />
    <path
        d="M44.5 55.45C44.0687 55.45 43.7812 55.1694 43.7812 54.7484V33.7016C43.7812 33.2806 44.0687 33 44.5 33C44.9313 33 45.2188 33.2806 45.2188 33.7016V54.7484C45.2188 55.1694 44.9313 55.45 44.5 55.45Z"
        fill="#D15D0D"
    />
    <path
        d="M55.2812 44.9266H33.7188C33.2875 44.9266 33 44.646 33 44.225C33 43.8041 33.2875 43.5235 33.7188 43.5235H55.2812C55.7125 43.5235 56 43.8041 56 44.225C56 44.6459 55.7124 44.9266 55.2812 44.9266Z"
        fill="#D15D0D"
    />
    <path
        d="M53.8437 40.0156H35.1563C34.725 40.0156 34.4375 39.735 34.4375 39.3141C34.4375 38.8931 34.725 38.6125 35.1563 38.6125H53.8437C54.275 38.6125 54.5625 38.8931 54.5625 39.3141C54.5625 39.735 54.2749 40.0156 53.8437 40.0156Z"
        fill="#D15D0D"
    />
    <path
        d="M53.8437 49.8375H35.1563C34.725 49.8375 34.4375 49.5569 34.4375 49.1359C34.4375 48.715 34.725 48.4344 35.1563 48.4344H53.8437C54.275 48.4344 54.5625 48.715 54.5625 49.1359C54.5625 49.5569 54.2749 49.8375 53.8437 49.8375Z"
        fill="#D15D0D"
    />
    <defs>
        <filter
            id="filter0_d_403_124"
            x="0"
            y="0"
            width="89"
            height="89"
            filterUnits="userSpaceOnUse"
            color-interpolation-filters="sRGB"
        >
            <feFlood flood-opacity="0" result="BackgroundImageFix" />
            <feColorMatrix
                in="SourceAlpha"
                type="matrix"
                values="0 0 0 0 0 0 0 0 0 0 0 0 0 0 0 0 0 0 127 0"
                result="hardAlpha"
            />
            <feOffset />
            <feGaussianBlur stdDeviation="13" />
            <feComposite in2="hardAlpha" operator="out" />
            <feColorMatrix
                type="matrix"
                values="0 0 0 0 0 0 0 0 0 0 0 0 0 0 0 0 0 0 0.25 0"
            />
            <feBlend
                mode="normal"
                in2="BackgroundImageFix"
                result="effect1_dropShadow_403_124"
            />
            <feBlend
                mode="normal"
                in="SourceGraphic"
                in2="effect1_dropShadow_403_124"
                result="shape"
            />
        </filter>
    </defs>
</svg>
