<svg
    width="31"
    height="31"
    viewBox="0 0 31 31"
    fill="none"
    xmlns="http://www.w3.org/2000/svg"
>
    <path
        d="M30.9909 0H0.00908203C0.00406616 0 0 0.00406616 0 0.00908203V30.9909C0 30.9959 0.00406616 31 0.00908203 31H30.9909C30.9959 31 31 30.9959 31 30.9909V0.00908203C31 0.00406616 30.9959 0 30.9909 0Z"
        fill="#37AEE2"
    />
    <path
        d="M12.0488 24.4609C11.3828 24.4609 11.4434 24.2188 11.2617 23.6133L9.32422 17.2559L24.1582 8.53711"
        fill="#C8DAEA"
    />
    <path
        d="M12.0488 24.4609C12.4727 24.4609 12.7148 24.2188 13.0176 23.9766L15.7422 21.373L12.3516 19.3145"
        fill="#A9C9DD"
    />
    <path
        d="M12.3515 19.3145L20.5253 25.3086C21.373 25.8535 22.0996 25.5508 22.3418 24.4609L25.6718 8.83984C25.9746 7.50781 25.1269 6.90234 24.2187 7.32617L4.78316 14.834C3.51167 15.3184 3.51167 16.1055 4.54097 16.4082L9.56636 17.9824L21.0703 10.6562C21.6152 10.3535 22.0996 10.4746 21.7363 10.8984"
        fill="#F6FBFE"
    />
</svg>
