<svg
    width="89"
    height="89"
    viewBox="0 0 89 89"
    fill="none"
    xmlns="http://www.w3.org/2000/svg"
>
    <g filter="url(#filter0_d_403_121)">
        <rect x="26" y="26" width="37" height="37" rx="4" fill="white" />
    </g>
    <path
        d="M49.5 41C49.5 41.7121 49.1674 42.7599 48.6076 43.9874C48.0567 45.1953 47.318 46.5103 46.5731 47.7324C45.8292 48.9528 45.0845 50.0717 44.5253 50.8861C44.3227 51.1812 44.1446 51.4361 44 51.6409C43.8554 51.4361 43.6773 51.1812 43.4747 50.8861C42.9155 50.0717 42.1708 48.9528 41.4269 47.7324C40.682 46.5103 39.9433 45.1953 39.3924 43.9874C38.8326 42.7599 38.5 41.7121 38.5 41C38.5 37.9624 40.9624 35.5 44 35.5C47.0376 35.5 49.5 37.9624 49.5 41Z"
        stroke="#D15D0D"
    />
    <circle cx="44" cy="41" r="2.5" stroke="#D15D0D" />
    <defs>
        <filter
            id="filter0_d_403_121"
            x="0"
            y="0"
            width="89"
            height="89"
            filterUnits="userSpaceOnUse"
            color-interpolation-filters="sRGB"
        >
            <feFlood flood-opacity="0" result="BackgroundImageFix" />
            <feColorMatrix
                in="SourceAlpha"
                type="matrix"
                values="0 0 0 0 0 0 0 0 0 0 0 0 0 0 0 0 0 0 127 0"
                result="hardAlpha"
            />
            <feOffset />
            <feGaussianBlur stdDeviation="13" />
            <feComposite in2="hardAlpha" operator="out" />
            <feColorMatrix
                type="matrix"
                values="0 0 0 0 0 0 0 0 0 0 0 0 0 0 0 0 0 0 0.25 0"
            />
            <feBlend
                mode="normal"
                in2="BackgroundImageFix"
                result="effect1_dropShadow_403_121"
            />
            <feBlend
                mode="normal"
                in="SourceGraphic"
                in2="effect1_dropShadow_403_121"
                result="shape"
            />
        </filter>
    </defs>
</svg>
