<svg width="8" height="14" viewBox="0 0 8 14" fill="none" xmlns="http://www.w3.org/2000/svg">
    <path d="M4.70741 0.292999L7.70741 3.293C7.88956 3.4816 7.99036 3.7342 7.98808 3.9964C7.9858 4.2586 7.88063 4.50941 7.69523 4.69482C7.50982 4.88023 7.259 4.9854 6.99681 4.98767C6.73461 4.98995 6.48201 4.88916 6.29341 4.707L5.00041 3.414L5.00041 13C5.00041 13.2652 4.89505 13.5196 4.70751 13.7071C4.51998 13.8946 4.26562 14 4.00041 14C3.73519 14 3.48084 13.8946 3.2933 13.7071C3.10576 13.5196 3.00041 13.2652 3.00041 13L3.00041 3.414L1.70741 4.707C1.5188 4.88916 1.2662 4.98995 1.00401 4.98767C0.741809 4.9854 0.490996 4.88023 0.305588 4.69482C0.12018 4.50941 0.0150115 4.2586 0.0127331 3.9964C0.0104547 3.7342 0.111249 3.4816 0.293407 3.293L3.29341 0.292999C3.48093 0.105528 3.73524 0.000213623 4.00041 0.000213623C4.26557 0.000213623 4.51988 0.105528 4.70741 0.292999Z" fill="#F97C4B"/>
</svg>
