<svg
    width="405"
    height="405"
    viewBox="0 0 405 405"
    fill="none"
    xmlns="http://www.w3.org/2000/svg"
    preserveAspectRatio="none"
>
    <path
        d="M52.7572 1.26988L4.34944 29.2734C1.65369 30.8536 -0.00158892 33.7461 0.000310604 36.8715V92.7392C-0.0260921 95.8894 1.6324 98.8122 4.34944 100.406L48.408 125.831V171.47L4.34944 196.964C1.65369 198.544 -0.00158892 201.437 0.000310604 204.562V260.43C-0.0260921 263.58 1.6324 266.503 4.34944 268.097L51.657 295.395C55.4986 297.613 58.7173 297.675 62.693 295.378L99.2738 274.286C104.202 286.345 116.04 294.931 129.804 294.931C135.383 294.931 140.582 293.405 145.206 290.926V292.782C145.206 310.914 160.079 325.786 178.211 325.786C196.344 325.786 211.217 310.914 211.217 292.782V275.694L245.271 295.326C249.75 298.18 253.183 297.225 256.238 295.461C267.601 288.849 279.018 282.297 290.412 275.726V333.262C290.412 351.336 305.223 366.147 323.426 366.147C341.629 366.147 356.423 351.336 356.423 333.262V281.279C361.014 283.727 366.167 285.25 371.705 285.25C391.664 285.25 404.83 268.684 404.83 252.382V36.8682C404.818 33.728 403.134 30.8338 400.412 29.2701L352.005 1.2674C350.742 0.540765 349.318 0.137929 347.862 0.100111C346.242 0.0730985 344.642 0.462428 343.238 1.2674L299.231 26.7261L255.206 1.2674C252.284 -0.418183 248.972 -0.196679 246.439 1.2674L202.432 26.7261L158.408 1.2674C155.322 -0.515428 152.385 -0.32688 149.624 1.2674L105.583 26.7096L61.5928 1.2674C58.5385 -0.296626 55.3406 -0.226137 52.7572 1.26658V1.26988ZM57.1751 19.0612L96.7986 41.9413V87.6677L57.1579 110.53L17.6032 87.6677V41.9413L57.1751 19.0612ZM153.973 19.0612L193.614 41.9413V87.6677C180.421 95.2942 167.223 102.912 154.025 110.53L114.419 87.6677V41.9413L153.973 19.0612ZM250.789 19.0612L290.412 41.9413V87.6677C277.224 95.2926 264.032 102.911 250.84 110.53L211.217 87.6677V41.9413L250.789 19.0612ZM347.656 19.0612L387.228 41.9413V252.385C387.228 261.011 380.46 267.649 371.705 267.649C362.949 267.649 356.423 261.011 356.423 252.385V186.821C356.166 175.343 339.075 175.343 338.82 186.821V333.264C338.82 341.891 332.182 348.53 323.426 348.53C314.67 348.53 308.032 341.891 308.032 333.264V208.034C308.032 203.167 308.232 200.214 305.093 197.857C290.389 189.243 274.933 180.357 259.624 171.488V125.813C275.1 116.873 290.716 107.86 303.975 100.182C307.346 98.2374 308.032 94.226 308.032 91.0715V41.9413L347.656 19.0612ZM56.986 33.5526C48.2108 33.9065 45.3076 45.4826 52.8775 49.9351L71.2023 61.0401C81.2518 67.1438 90.4142 52.068 80.3647 45.9642L62.0399 34.9285C60.5338 33.9668 58.7711 33.4878 56.986 33.5526ZM360.72 66.7471C355.825 66.7741 351.91 70.8264 352.005 75.7203V110.874C352.005 122.621 369.625 122.621 369.625 110.874V75.7203C369.722 70.7521 365.689 66.6885 360.72 66.7471ZM105.583 102.95L145.206 125.813V171.488L105.6 194.402C92.3998 186.77 79.2023 179.134 66.0109 171.488V125.813L105.583 102.95ZM202.381 102.95L242.022 125.813V171.488L202.381 194.419L162.826 171.504V125.796L202.381 102.95ZM201.934 117.631C193.199 118.028 190.321 129.537 197.843 133.996L216.15 145.117C226.201 151.191 235.312 136.115 225.261 130.041L207.005 118.919C205.485 117.985 203.716 117.536 201.934 117.631ZM360.72 137.193C355.86 137.22 351.958 141.22 352.005 146.08V154.916C352.005 166.662 369.625 166.662 369.625 154.916V146.08C369.673 141.145 365.655 137.135 360.72 137.193ZM154.025 186.752L193.614 209.581C193.613 237.326 193.614 265.029 193.614 292.782C193.614 301.467 186.897 308.184 178.212 308.184C169.526 308.184 162.809 301.467 162.809 292.782C162.776 272.707 162.872 252.468 162.775 232.461C162.775 227.757 158.473 224.353 153.853 224.433C149.158 224.541 145.361 228.283 145.224 232.977C145.185 242.592 145.206 252.283 145.206 261.925C145.206 270.61 138.489 277.327 129.803 277.327C121.118 277.327 114.418 270.61 114.418 261.925V209.65L154.025 186.752ZM57.1579 186.77L96.7986 209.667V255.359L57.1751 278.239L17.6031 255.359V209.633L57.1579 186.77ZM250.806 186.77L290.412 209.633V255.359L250.857 278.239L211.217 255.359V209.633C224.401 201.991 237.599 194.373 250.806 186.77ZM56.7109 201.433C47.814 201.703 44.8815 213.486 52.6197 217.884L70.9445 228.92C80.9957 234.985 90.0893 219.909 80.0381 213.844L61.7305 202.808C60.2341 201.855 58.4845 201.374 56.7109 201.431V201.433ZM250.325 201.433C241.428 201.703 238.495 213.486 246.233 217.884L264.558 228.92C274.609 234.985 283.703 219.909 273.652 213.844L255.396 202.808C253.885 201.844 252.116 201.366 250.325 201.431V201.433ZM127.208 325.787C124.172 325.922 121.423 327.624 119.937 330.273C119.937 330.273 115.204 338.697 110.448 348.479C105.17 357.927 100.323 368.232 100.323 377.702C100.323 392.666 112.64 405 127.603 405C142.567 405 154.884 392.666 154.884 377.702C154.884 367.086 148.983 357.613 144.759 348.479C140.003 338.697 135.27 330.273 135.27 330.273C133.645 327.376 130.527 325.642 127.208 325.787ZM127.603 353.601C130.194 358.396 132.724 364.593 134.944 369.778C139.843 379.838 136.459 387.38 127.603 387.38C117.933 387.38 116.589 378.841 120.194 369.778C122.742 364.168 125.465 357.835 127.603 353.601Z"
        fill="url(#paint0_linear_123_406)"
    />
    <defs>
        <linearGradient
            id="paint0_linear_123_406"
            x1="254.214"
            y1="69.6774"
            x2="158.407"
            y2="327.702"
            gradientUnits="userSpaceOnUse"
        >
            <stop stop-color="#ECECEC" stop-opacity="0.56"/>
            <stop offset="1" stop-color="#EAEAEA" stop-opacity="0.3"/>
        </linearGradient>
    </defs>
</svg>
