<svg
    width="20"
    height="20"
    viewBox="0 0 20 20"
    fill="none"
    xmlns="http://www.w3.org/2000/svg"
>
    <path
        d="M5.25702 16.9778H5.66404V15.52H8.18687V16.9778H8.59457V15.52H11.2364V16.9778H11.6448V15.52H14.4556V16.9778H14.8627V15.52H17.2001V15.1137H14.8627V12.4725H17.2001V12.0648H14.8627V9.6576H17.2001V9.25127H14.8627V7.62524H14.4556V9.25127H11.6448V7.62524H11.2364V9.25127H8.59457V7.62524H8.18687V9.25127H5.66335V7.62524H5.25702V9.25127H2.56317V9.6576H5.25702V12.0648H2.56317V12.4725H5.25702V15.1137H2.56317V15.52H5.25702V16.9778ZM8.59389 15.1137V12.4725H11.2357V15.1137H8.59389ZM14.4556 15.1137H11.6448V12.4725H14.4556V15.1137ZM14.4556 9.6576V12.0648H11.6448V9.6576C11.6448 9.65828 14.4556 9.65828 14.4556 9.6576ZM11.2364 9.6576V12.0648H8.59457V9.6576C8.59457 9.65828 11.2364 9.65828 11.2364 9.6576ZM5.66335 9.6576H8.18618V12.0648H5.66335V9.6576ZM5.66335 12.4725H8.18618V15.1137H5.66335V12.4725Z"
        fill="#D15D0D"
    />
    <path
        d="M19.9795 1.71289L17.155 1.71563L16.7425 1.717V3.39159C16.7425 3.83828 16.3772 4.20357 15.9298 4.20357H14.9803C14.5316 4.20357 14.1677 3.83896 14.1677 3.39159V1.71973L13.0848 1.7211V3.39159C13.0848 3.83828 12.7188 4.20357 12.2701 4.20357H11.3206C10.8725 4.20357 10.5079 3.83896 10.5079 3.39159V1.72178L9.35732 1.72452V3.39227C9.35732 3.83896 8.99203 4.20425 8.54397 4.20425H7.5938C7.14711 4.20425 6.78113 3.83965 6.78113 3.39227V1.72726H5.59633V3.39227C5.59633 3.83896 5.23173 4.20425 4.78366 4.20425H3.83418C3.38544 4.20425 3.02083 3.83965 3.02083 3.39227V1.73068L0 1.73341V19.6238H1.4297H18.5724L20 19.6197L19.9795 1.71289ZM18.5724 18.2002H1.4297V6.77018H18.5724V18.2002Z"
        fill="#D15D0D"
    />
    <path
        d="M3.83416 3.62753H4.78364C4.89515 3.62753 4.98613 3.53655 4.98613 3.42436V0.578656C4.98613 0.465785 4.89515 0.375488 4.78364 0.375488H3.83416C3.72129 0.375488 3.63031 0.465785 3.63031 0.578656V3.42436C3.63031 3.53655 3.72129 3.62753 3.83416 3.62753Z"
        fill="#D15D0D"
    />
    <path
        d="M7.59379 3.62753H8.54396C8.65614 3.62753 8.74713 3.53655 8.74713 3.42436V0.578656C8.74644 0.465785 8.65546 0.375488 8.54327 0.375488H7.59311C7.48161 0.375488 7.39062 0.465785 7.39062 0.578656V3.42436C7.39131 3.53655 7.48229 3.62753 7.59379 3.62753Z"
        fill="#D15D0D"
    />
    <path
        d="M11.3206 3.62753H12.2701C12.3836 3.62753 12.4746 3.53655 12.4746 3.42436V0.578656C12.4739 0.465785 12.3836 0.375488 12.2701 0.375488H11.3206C11.2084 0.375488 11.1174 0.465785 11.1174 0.578656V3.42436C11.1174 3.53655 11.2084 3.62753 11.3206 3.62753Z"
        fill="#D15D0D"
    />
    <path
        d="M14.9803 3.62753H15.9298C16.042 3.62753 16.1323 3.53655 16.1323 3.42436V0.578656C16.1323 0.465785 16.042 0.375488 15.9298 0.375488H14.9803C14.8681 0.375488 14.7772 0.465785 14.7772 0.578656V3.42436C14.7778 3.53655 14.8681 3.62753 14.9803 3.62753Z"
        fill="#D15D0D"
    />
</svg>
