<svg width="59" height="70" viewBox="0 0 59 70" fill="none" xmlns="http://www.w3.org/2000/svg">
    <g clip-path="url(#clip0_257_105)">
        <path d="M29.5 70C45.7924 70 59 56.7924 59 40.5C59 24.2076 45.7924 11 29.5 11C13.2076 11 0 24.2076 0 40.5C0 56.7924 13.2076 70 29.5 70Z" fill="#E67A17"/>
        <g filter="url(#filter0_d_257_105)">
            <path d="M48.104 32.624H45.848C45.912 30.416 45.976 28.896 46.04 28.064L41.576 28.592L41 26C42.248 25.744 43.992 25.536 46.232 25.376C46.488 22.816 46.712 21.024 46.904 20L49.496 20.576L48.968 24.944H53.624V27.2L48.632 27.776L48.104 32.624Z" fill="white"/>
        </g>
        <path d="M44.875 33.3333C44.875 32.1368 43.9235 31.1667 42.75 31.1667H40.625C39.4515 31.1667 38.5 32.1368 38.5 33.3333H37.4375L35.8998 30.1975C35.5397 29.4637 34.8041 29 33.9989 29H26.0011C25.1959 29 24.4603 29.4637 24.1002 30.1976L22.5625 33.3333H15.125C13.9515 33.3333 13 34.3035 13 35.5V52.8333C13 54.0298 13.9515 55 15.125 55H44.875C46.0485 55 47 54.0298 47 52.8333V35.5C47 34.3035 46.0485 33.3333 44.875 33.3333ZM30 51.75C25.8922 51.75 22.5625 48.3548 22.5625 44.1667C22.5625 39.9785 25.8922 36.5833 30 36.5833C34.1078 36.5833 37.4375 39.9785 37.4375 44.1667C37.4375 48.3548 34.1078 51.75 30 51.75Z" fill="white"/>
        <path d="M30 48C32.2091 48 34 46.2092 34 44C34 41.7908 32.2091 40 30 40C27.7909 40 26 41.7908 26 44C26 46.2092 27.7909 48 30 48Z" fill="white"/>
    </g>
    <defs>
        <filter id="filter0_d_257_105" x="17" y="-4" width="60.624" height="60.624" filterUnits="userSpaceOnUse" color-interpolation-filters="sRGB">
            <feFlood flood-opacity="0" result="BackgroundImageFix"/>
            <feColorMatrix in="SourceAlpha" type="matrix" values="0 0 0 0 0 0 0 0 0 0 0 0 0 0 0 0 0 0 127 0" result="hardAlpha"/>
            <feOffset/>
            <feGaussianBlur stdDeviation="12"/>
            <feComposite in2="hardAlpha" operator="out"/>
            <feColorMatrix type="matrix" values="0 0 0 0 0 0 0 0 0 0 0 0 0 0 0 0 0 0 0.25 0"/>
            <feBlend mode="normal" in2="BackgroundImageFix" result="effect1_dropShadow_257_105"/>
            <feBlend mode="normal" in="SourceGraphic" in2="effect1_dropShadow_257_105" result="shape"/>
        </filter>
        <clipPath id="clip0_257_105">
            <rect width="59" height="70" fill="white"/>
        </clipPath>
    </defs>
</svg>
