<svg width="17" height="18" viewBox="0 0 17 18" fill="none" xmlns="http://www.w3.org/2000/svg">
    <path d="M2.25 4.5L3.16125 16.3458C3.21125 16.997 3.75425 17.5 4.4075 17.5H12.5925C13.2458 17.5 13.7888 16.997 13.8388 16.3458L14.75 4.5" fill="#D46110"/>
    <path d="M12.25 6.5V15.25C12.25 15.6625 11.9125 16 11.5 16C11.0875 16 10.75 15.6625 10.75 15.25V6.5C10.75 6.0875 11.0875 5.75 11.5 5.75C11.9125 5.75 12.25 6.0875 12.25 6.5ZM9.25 6.5V15.25C9.25 15.6625 8.9125 16 8.5 16C8.0875 16 7.75 15.6625 7.75 15.25V6.5C7.75 6.0875 8.0875 5.75 8.5 5.75C8.9125 5.75 9.25 6.0875 9.25 6.5ZM6.25 6.5V15.25C6.25 15.6625 5.9125 16 5.5 16C5.0875 16 4.75 15.6625 4.75 15.25V6.5C4.75 6.0875 5.0875 5.75 5.5 5.75C5.9125 5.75 6.25 6.0875 6.25 6.5ZM15.25 3H14.25L13.7913 2.2355C13.6105 1.93425 13.285 1.75 12.9338 1.75H4.06625C3.715 1.75 3.3895 1.93425 3.20875 2.2355L2.75 3H1.75C1.33575 3 1 3.33575 1 3.75C1 4.16425 1.33575 4.5 1.75 4.5H15.25C15.6642 4.5 16 4.16425 16 3.75C16 3.33575 15.6642 3 15.25 3Z" fill="#B83806"/>
    <path d="M12.5927 17.75H4.40773C3.62873 17.75 2.97173 17.1415 2.91223 16.365L2.00098 4.51925L2.49948 4.48075L3.41073 16.3267C3.45048 16.8445 3.88848 17.25 4.40773 17.25H12.5927C13.112 17.25 13.55 16.8445 13.5897 16.327L14.501 4.48075L14.9995 4.51925L14.0882 16.3652C14.0285 17.1415 13.3715 17.75 12.5927 17.75ZM10.0002 2C9.86223 2 9.75023 1.88825 9.75023 1.75V1C9.75023 0.862 9.63798 0.75 9.50023 0.75H7.50023C7.36248 0.75 7.25023 0.862 7.25023 1V1.75C7.25023 1.88825 7.13823 2 7.00023 2C6.86223 2 6.75023 1.88825 6.75023 1.75V1C6.75023 0.5865 7.08673 0.25 7.50023 0.25H9.50023C9.91373 0.25 10.2502 0.5865 10.2502 1V1.75C10.2502 1.88825 10.1382 2 10.0002 2Z"/>
    <path d="M15.25 4.75H1.75C1.1985 4.75 0.75 4.3015 0.75 3.75C0.75 3.1985 1.1985 2.75 1.75 2.75H2.6085L2.99425 2.107C3.21875 1.73275 3.6295 1.5 4.06625 1.5H12.934C13.3708 1.5 13.7813 1.73275 14.0058 2.107L14.3915 2.75H15.25C15.8015 2.75 16.25 3.1985 16.25 3.75C16.25 4.3015 15.8015 4.75 15.25 4.75ZM1.75 3.25C1.47425 3.25 1.25 3.47425 1.25 3.75C1.25 4.02575 1.47425 4.25 1.75 4.25H15.25C15.5258 4.25 15.75 4.02575 15.75 3.75C15.75 3.47425 15.5258 3.25 15.25 3.25H14.25C14.1622 3.25 14.0807 3.20375 14.0357 3.12875L13.577 2.36425C13.4422 2.13975 13.1958 2 12.9338 2H4.06625C3.80425 2 3.558 2.13975 3.42325 2.36425L2.9645 3.12875C2.91925 3.20375 2.83775 3.25 2.75 3.25H1.75Z"/>
    <path d="M11.375 3.25H2.375C2.306 3.25 2.25 3.194 2.25 3.125C2.25 3.056 2.306 3 2.375 3H11.375C11.444 3 11.5 3.056 11.5 3.125C11.5 3.194 11.444 3.25 11.375 3.25ZM14.375 3.25H13.125C13.056 3.25 13 3.194 13 3.125C13 3.056 13.056 3 13.125 3H14.375C14.444 3 14.5 3.056 14.5 3.125C14.5 3.194 14.444 3.25 14.375 3.25ZM12.625 3.25H12.125C12.056 3.25 12 3.194 12 3.125C12 3.056 12.056 3 12.125 3H12.625C12.694 3 12.75 3.056 12.75 3.125C12.75 3.194 12.694 3.25 12.625 3.25ZM8.5 16C8.0865 16 7.75 15.6635 7.75 15.25V6.5C7.75 6.0865 8.0865 5.75 8.5 5.75C8.9135 5.75 9.25 6.0865 9.25 6.5V12.875C9.25 12.944 9.194 13 9.125 13C9.056 13 9 12.944 9 12.875V6.5C9 6.22425 8.77575 6 8.5 6C8.22425 6 8 6.22425 8 6.5V15.25C8 15.5258 8.22425 15.75 8.5 15.75C8.77575 15.75 9 15.5258 9 15.25V14.375C9 14.306 9.056 14.25 9.125 14.25C9.194 14.25 9.25 14.306 9.25 14.375V15.25C9.25 15.6635 8.9135 16 8.5 16ZM11.5 16C11.0865 16 10.75 15.6635 10.75 15.25V8.875C10.75 8.806 10.806 8.75 10.875 8.75C10.944 8.75 11 8.806 11 8.875V15.25C11 15.5258 11.2242 15.75 11.5 15.75C11.7758 15.75 12 15.5258 12 15.25V6.5C12 6.22425 11.7758 6 11.5 6C11.2242 6 11 6.22425 11 6.5V6.875C11 6.944 10.944 7 10.875 7C10.806 7 10.75 6.944 10.75 6.875V6.5C10.75 6.0865 11.0865 5.75 11.5 5.75C11.9135 5.75 12.25 6.0865 12.25 6.5V15.25C12.25 15.6635 11.9135 16 11.5 16Z" fill="#1F212B"/>
    <path d="M10.875 8.25C10.806 8.25 10.75 8.194 10.75 8.125V7.625C10.75 7.556 10.806 7.5 10.875 7.5C10.944 7.5 11 7.556 11 7.625V8.125C11 8.194 10.944 8.25 10.875 8.25ZM5.5 16C5.0865 16 4.75 15.6635 4.75 15.25V6.5C4.75 6.0865 5.0865 5.75 5.5 5.75C5.9135 5.75 6.25 6.0865 6.25 6.5V15.25C6.25 15.6635 5.9135 16 5.5 16ZM5.5 6C5.22425 6 5 6.22425 5 6.5V15.25C5 15.5258 5.22425 15.75 5.5 15.75C5.77575 15.75 6 15.5258 6 15.25V6.5C6 6.22425 5.77575 6 5.5 6Z" fill="#1F212B"/>
</svg>
