<svg width="23" height="23" viewBox="0 0 23 23" fill="none" xmlns="http://www.w3.org/2000/svg">
    <path d="M11.5 23C17.8513 23 23 17.9056 23 11.6214C23 5.33722 17.8513 0.242859 11.5 0.242859C5.14873 0.242859 0 5.33722 0 11.6214C0 17.9056 5.14873 23 11.5 23Z" fill="#E67A17"/>
    <path d="M15.2917 5.20904L14.1183 4.62647C13.6237 4.38086 13.0229 4.58242 12.7764 5.07667L8.59821 13.4554C8.35175 13.9496 8.55296 14.5494 9.04763 14.795L10.221 15.3776C10.7156 15.6232 11.3164 15.4216 11.5629 14.9274L15.7411 6.54864C15.9876 6.0544 15.7863 5.45464 15.2917 5.20904Z" fill="white"/>
    <path d="M10.6884 16.3762C10.6884 16.3762 9.06938 18.6434 7.97006 18.0536C6.87073 17.4638 7.87339 14.8659 7.87339 14.8659L10.6884 16.3762Z" fill="white"/>
</svg>
