<svg width="29" height="32" viewBox="0 0 29 32" fill="none" xmlns="http://www.w3.org/2000/svg">
    <path d="M27.8671 20.6182H17.9098C17.3642 20.6182 16.9219 20.1759 16.9219 19.6303C16.9219 19.0846 17.3642 18.6424 17.9098 18.6424H27.8668C28.4124 18.6424 28.8547 19.0846 28.8547 19.6303C28.8547 20.1759 28.4127 20.6182 27.8671 20.6182Z" fill="white"/>
    <path d="M13.1195 20.6182H0.987891C0.442246 20.6182 0 20.1759 0 19.6303C0 19.0846 0.442246 18.6424 0.987891 18.6424H13.1198C13.6655 18.6424 14.1077 19.0846 14.1077 19.6303C14.1077 20.1759 13.6652 20.6182 13.1195 20.6182Z" fill="white"/>
    <path d="M11.6318 19.6306C11.6318 21.7719 13.3731 23.5131 15.5144 23.5131C17.656 23.5131 19.3972 21.7716 19.3972 19.6306C19.3972 17.489 17.656 15.7477 15.5144 15.7477C13.3731 15.7477 11.6318 17.489 11.6318 19.6306ZM14.6076 19.6303C14.6076 19.1304 15.0148 18.7232 15.5144 18.7232C16.0141 18.7232 16.4215 19.1306 16.4215 19.6303C16.4215 20.1296 16.0141 20.537 15.5144 20.537C15.015 20.537 14.6076 20.1296 14.6076 19.6303Z" fill="#EC8318" stroke="white"/>
    <path d="M27.8666 12.9943H8.83652C8.29087 12.9943 7.84863 12.5521 7.84863 12.0064C7.84863 11.4608 8.29087 11.0186 8.83652 11.0186H27.8666C28.4123 11.0186 28.8545 11.4608 28.8545 12.0064C28.8545 12.5521 28.4123 12.9943 27.8666 12.9943Z" fill="white"/>
    <path d="M4.04673 12.9943H0.987891C0.442246 12.9943 0 12.5521 0 12.0064C0 11.4608 0.442246 11.0186 0.987891 11.0186H4.04673C4.59237 11.0186 5.03462 11.4608 5.03462 12.0064C5.03462 12.5521 4.59205 12.9943 4.04673 12.9943Z" fill="white"/>
    <path d="M2.55859 12.0064C2.55859 14.148 4.29985 15.8893 6.44145 15.8893C8.5827 15.8893 10.3244 14.148 10.3244 12.0064C10.3244 9.86479 8.58306 8.12354 6.44145 8.12354C4.29985 8.12354 2.55859 9.86479 2.55859 12.0064ZM5.53437 12.0064C5.53437 11.5067 5.94177 11.0993 6.44145 11.0993C6.94088 11.0993 7.34854 11.5068 7.34854 12.0064C7.34854 12.5061 6.94114 12.9135 6.44145 12.9135C5.94177 12.9135 5.53437 12.5061 5.53437 12.0064Z" fill="#EC8318" stroke="white"/>
    <path d="M18.5885 5.37074H0.987891C0.442246 5.37074 0 4.92849 0 4.38285C0 3.8372 0.442246 3.39496 0.987891 3.39496H18.5885C19.1341 3.39496 19.5764 3.8372 19.5764 4.38285C19.5764 4.92849 19.1341 5.37074 18.5885 5.37074Z" fill="white"/>
    <path d="M27.8668 5.37074H23.3785C22.8329 5.37074 22.3906 4.92849 22.3906 4.38285C22.3906 3.8372 22.8329 3.39496 23.3785 3.39496H27.8668C28.4125 3.39496 28.8547 3.8372 28.8547 4.38285C28.8547 4.92849 28.4125 5.37074 27.8668 5.37074Z" fill="white"/>
    <path d="M17.1006 4.38287C17.1006 6.52444 18.8418 8.26573 20.9831 8.26573C23.1247 8.26573 24.866 6.52448 24.866 4.38287C24.866 2.24126 23.1247 0.5 20.9831 0.5C18.8418 0.5 17.1006 2.24129 17.1006 4.38287ZM20.0764 4.38287C20.0764 3.88311 20.4838 3.47578 20.9831 3.47578C21.4831 3.47578 21.8902 3.88311 21.8902 4.38287C21.8902 4.88255 21.4828 5.28995 20.9831 5.28995C20.4838 5.28995 20.0764 4.88262 20.0764 4.38287Z" fill="#EC8318" stroke="white"/>
    <path d="M27.8671 20.6182H17.9098C17.3642 20.6182 16.9219 20.1759 16.9219 19.6303C16.9219 19.0846 17.3642 18.6424 17.9098 18.6424H27.8668C28.4124 18.6424 28.8547 19.0846 28.8547 19.6303C28.8547 20.1759 28.4127 20.6182 27.8671 20.6182Z" fill="white"/>
    <path d="M13.1195 20.6182H0.987891C0.442246 20.6182 0 20.1759 0 19.6303C0 19.0846 0.442246 18.6424 0.987891 18.6424H13.1198C13.6655 18.6424 14.1077 19.0846 14.1077 19.6303C14.1077 20.1759 13.6652 20.6182 13.1195 20.6182Z" fill="white"/>
    <path d="M11.6318 19.6306C11.6318 21.7719 13.3731 23.5131 15.5144 23.5131C17.656 23.5131 19.3972 21.7716 19.3972 19.6306C19.3972 17.489 17.656 15.7477 15.5144 15.7477C13.3731 15.7477 11.6318 17.489 11.6318 19.6306ZM14.6076 19.6303C14.6076 19.1304 15.0148 18.7232 15.5144 18.7232C16.0141 18.7232 16.4215 19.1306 16.4215 19.6303C16.4215 20.1296 16.0141 20.537 15.5144 20.537C15.015 20.537 14.6076 20.1296 14.6076 19.6303Z" fill="#EC8318" stroke="white"/>
    <path d="M27.8666 12.9943H8.83652C8.29087 12.9943 7.84863 12.5521 7.84863 12.0064C7.84863 11.4608 8.29087 11.0186 8.83652 11.0186H27.8666C28.4123 11.0186 28.8545 11.4608 28.8545 12.0064C28.8545 12.5521 28.4123 12.9943 27.8666 12.9943Z" fill="white"/>
    <path d="M4.04673 12.9943H0.987891C0.442246 12.9943 0 12.5521 0 12.0064C0 11.4608 0.442246 11.0186 0.987891 11.0186H4.04673C4.59237 11.0186 5.03462 11.4608 5.03462 12.0064C5.03462 12.5521 4.59205 12.9943 4.04673 12.9943Z" fill="white"/>
    <path d="M2.55859 12.0064C2.55859 14.148 4.29985 15.8893 6.44145 15.8893C8.5827 15.8893 10.3244 14.148 10.3244 12.0064C10.3244 9.86479 8.58306 8.12354 6.44145 8.12354C4.29985 8.12354 2.55859 9.86479 2.55859 12.0064ZM5.53437 12.0064C5.53437 11.5067 5.94177 11.0993 6.44145 11.0993C6.94088 11.0993 7.34854 11.5068 7.34854 12.0064C7.34854 12.5061 6.94114 12.9135 6.44145 12.9135C5.94177 12.9135 5.53437 12.5061 5.53437 12.0064Z" fill="#EC8318" stroke="white"/>
    <path d="M18.5885 5.37074H0.987891C0.442246 5.37074 0 4.92849 0 4.38285C0 3.8372 0.442246 3.39496 0.987891 3.39496H18.5885C19.1341 3.39496 19.5764 3.8372 19.5764 4.38285C19.5764 4.92849 19.1341 5.37074 18.5885 5.37074Z" fill="white"/>
    <path d="M27.8668 5.37074H23.3785C22.8329 5.37074 22.3906 4.92849 22.3906 4.38285C22.3906 3.8372 22.8329 3.39496 23.3785 3.39496H27.8668C28.4125 3.39496 28.8547 3.8372 28.8547 4.38285C28.8547 4.92849 28.4125 5.37074 27.8668 5.37074Z" fill="white"/>
    <path d="M17.1006 4.38287C17.1006 6.52444 18.8418 8.26573 20.9831 8.26573C23.1247 8.26573 24.866 6.52448 24.866 4.38287C24.866 2.24126 23.1247 0.5 20.9831 0.5C18.8418 0.5 17.1006 2.24129 17.1006 4.38287ZM20.0764 4.38287C20.0764 3.88311 20.4838 3.47578 20.9831 3.47578C21.4831 3.47578 21.8902 3.88311 21.8902 4.38287C21.8902 4.88255 21.4828 5.28995 20.9831 5.28995C20.4838 5.28995 20.0764 4.88262 20.0764 4.38287Z" fill="#EC8318" stroke="white"/>
    <path d="M27.8666 27.8708H8.83652C8.29087 27.8708 7.84863 27.4286 7.84863 26.8829C7.84863 26.3373 8.29087 25.8951 8.83652 25.8951H27.8666C28.4123 25.8951 28.8545 26.3373 28.8545 26.8829C28.8545 27.4286 28.4123 27.8708 27.8666 27.8708Z" fill="white"/>
    <path d="M4.04673 27.8708H0.987891C0.442246 27.8708 0 27.4286 0 26.8829C0 26.3373 0.442246 25.8951 0.987891 25.8951H4.04673C4.59237 25.8951 5.03462 26.3373 5.03462 26.8829C5.03462 27.4286 4.59205 27.8708 4.04673 27.8708Z" fill="white"/>
    <path d="M2.55859 26.8829C2.55859 29.0245 4.29985 30.7658 6.44145 30.7658C8.5827 30.7658 10.3244 29.0245 10.3244 26.8829C10.3244 24.7413 8.58306 23 6.44145 23C4.29985 23 2.55859 24.7413 2.55859 26.8829ZM5.53437 26.8829C5.53437 26.3832 5.94177 25.9758 6.44145 25.9758C6.94088 25.9758 7.34854 26.3833 7.34854 26.8829C7.34854 27.3826 6.94114 27.79 6.44145 27.79C5.94177 27.79 5.53437 27.3826 5.53437 26.8829Z" fill="#EC8318" stroke="white"/>
</svg>
