<svg width="22" height="18" viewBox="0 0 22 18" fill="none" xmlns="http://www.w3.org/2000/svg">
    <path d="M20.8666 9.99432H1.83652C1.29087 9.99432 0.848633 9.55212 0.848633 9.00642C0.848633 8.46082 1.29087 8.01862 1.83652 8.01862H20.8666C21.4123 8.01862 21.8545 8.46082 21.8545 9.00642C21.8545 9.55212 21.4123 9.99432 20.8666 9.99432Z" fill="white"/>
    <path d="M21.0179 1.9757H1.98789C1.44224 1.9757 1 1.5335 1 0.9878C1 0.4422 1.44224 0 1.98789 0H21.0179C21.5636 0 22.0058 0.4422 22.0058 0.9878C22.0058 1.5335 21.5636 1.9757 21.0179 1.9757Z" fill="white"/>
    <path d="M21.0179 17.9757H1.98789C1.44224 17.9757 1 17.5335 1 16.9878C1 16.4422 1.44224 16 1.98789 16H21.0179C21.5636 16 22.0058 16.4422 22.0058 16.9878C22.0058 17.5335 21.5636 17.9757 21.0179 17.9757Z" fill="white"/>
</svg>
