<svg width="28" height="28" viewBox="0 0 28 28" fill="none" xmlns="http://www.w3.org/2000/svg"><path d="M28 1.41L26.59 0L0 26.59L1.41 28L3.41 26H24C24.5304 26 25.0391 25.7893 25.4142 25.4142C25.7893 25.0391 26 24.5304 26 24V3.41L28 1.41ZM24 24H5.41L13.21 16.2L15.59 18.59C15.9647 18.9625 16.4716 19.1716 17 19.1716C17.5284 19.1716 18.0353 18.9625 18.41 18.59L20 17L24 21V24ZM24 18.17L21.41 15.58C21.0353 15.2075 20.5284 14.9984 20 14.9984C19.4716 14.9984 18.9647 15.2075 18.59 15.58L17 17.17L14.62 14.79L24 5.41V18.17ZM4 20V17L9 12L10.37 13.38L11.79 11.96L10.41 10.59C10.0353 10.2175 9.52837 10.0084 9 10.0084C8.47163 10.0084 7.96473 10.2175 7.59 10.59L4 14.17V4H20V2H4C3.46957 2 2.96086 2.21071 2.58579 2.58579C2.21071 2.96086 2 3.46957 2 4V20H4Z" fill="currentColor"/>
</svg>
