<svg width="8" height="8" viewBox="0 0 8 8" fill="#d15d0d" xmlns="http://www.w3.org/2000/svg">
	<path d="M0 3.32924C0 5.16544 1.49386 6.65766 3.32842 6.65766C4.17363 6.65766 4.94676 6.33989 5.53481 5.81901L7.65602 7.94022C7.69533 7.97953 7.74611 7.99919 7.79853 7.99919C7.85094 7.99919 7.90172 7.97953 7.94103 7.94022C8.01966 7.86159 8.01966 7.73547 7.94103 7.65684L5.81818 5.53563C6.33907 4.94759 6.65684 4.17609 6.65684 3.32924C6.65684 1.49304 5.16298 0.000823975 3.32842 0.000823975C1.49386 0.000823975 0 1.49304 0 3.32924ZM6.25553 3.32924C6.25553 4.94267 4.94185 6.25635 3.32842 6.25635C1.71499 6.25635 0.40131 4.94267 0.40131 3.32924C0.40131 1.71581 1.71499 0.402134 3.32842 0.402134C4.94185 0.402134 6.25553 1.71417 6.25553 3.32924Z" fill="#d15d0d"/>
</svg>
