<svg
    width="23"
    height="23"
    viewBox="0 0 23 23"
    fill="none"
    xmlns="http://www.w3.org/2000/svg"
>
    <path
        d="M2.12727 2.12719C1.87209 2.38236 1.8489 2.78166 2.05767 3.06304L2.12727 3.14365L5.99373 7.01012C4.15182 8.30336 2.77519 10.2349 2.20318 12.5201C2.10679 12.9051 2.34081 13.2954 2.72588 13.3918C3.11096 13.4882 3.50126 13.2542 3.59766 12.8691C4.10506 10.8421 5.35824 9.14199 7.02865 8.04475L8.76288 9.77912C8.08485 10.4706 7.66675 11.4179 7.66675 12.4627C7.66675 14.5799 9.38299 16.2961 11.5001 16.2961C12.545 16.2961 13.4923 15.878 14.1838 15.1999L19.8565 20.8728C20.1372 21.1535 20.5922 21.1535 20.8729 20.8728C21.1281 20.6177 21.1513 20.2183 20.9424 19.937L20.8729 19.8564L17.9435 16.9267L15.0141 13.9969L15.0152 13.9955L13.8652 12.8475L11.1148 10.0978L11.1167 10.097L8.35557 7.33875L8.35675 7.337L7.27069 6.2536L3.14373 2.12719C2.86305 1.8465 2.40795 1.8465 2.12727 2.12719ZM9.77901 10.7961L13.1668 14.1839C12.7356 14.6016 12.1478 14.8586 11.5001 14.8586C10.1769 14.8586 9.10425 13.7859 9.10425 12.4627C9.10425 11.815 9.36131 11.2273 9.77901 10.7961ZM11.5001 5.27084C10.5415 5.27084 9.6113 5.41274 8.73154 5.67813L9.91701 6.86281C10.4305 6.76135 10.96 6.70834 11.5001 6.70834C15.2597 6.70834 18.5054 9.27692 19.4036 12.8735C19.4998 13.2585 19.8899 13.4928 20.2751 13.3966C20.6602 13.3004 20.8944 12.9103 20.7982 12.5251C19.7412 8.29219 15.9233 5.27084 11.5001 5.27084ZM11.6867 8.6339L15.3296 12.2763C15.232 10.3051 13.6536 8.72816 11.6867 8.6339Z"
        fill="#212121"
    />
</svg>
