<svg xmlns="http://www.w3.org/2000/svg" fill="none" preserveAspectRatio="none" viewBox="0 0 405 405"><path fill="url(#a)" d="M52.757 1.27 4.35 29.273A8.801 8.801 0 0 0 0 36.871V92.74a8.802 8.802 0 0 0 4.35 7.667l44.058 25.425v45.639L4.349 196.964A8.801 8.801 0 0 0 0 204.562v55.868a8.803 8.803 0 0 0 4.35 7.667l47.307 27.298c3.842 2.218 7.06 2.28 11.036-.017l36.58-21.092c4.929 12.059 16.767 20.645 30.531 20.645 5.579 0 10.778-1.526 15.402-4.005v1.856c0 18.132 14.873 33.004 33.005 33.004 18.133 0 33.006-14.872 33.006-33.004v-17.088l34.054 19.632c4.479 2.854 7.912 1.899 10.967.135 11.363-6.612 22.78-13.164 34.174-19.735v57.536c0 18.074 14.811 32.885 33.014 32.885 18.203 0 32.997-14.811 32.997-32.885v-51.983c4.591 2.448 9.744 3.971 15.282 3.971 19.959 0 33.125-16.566 33.125-32.868V36.868a8.801 8.801 0 0 0-4.418-7.598L352.005 1.267A8.767 8.767 0 0 0 347.862.1a8.981 8.981 0 0 0-4.624 1.167l-44.007 25.46-44.025-25.46c-2.922-1.685-6.234-1.464-8.767 0l-44.007 25.46-44.024-25.46c-3.086-1.782-6.023-1.594-8.784 0L105.583 26.71 61.593 1.267c-3.055-1.564-6.252-1.493-8.836 0v.003Zm4.418 17.791L96.8 41.941v45.727L57.158 110.53 17.603 87.668V41.94l39.572-22.88Zm96.798 0 39.641 22.88v45.727c-13.193 7.626-26.391 15.244-39.589 22.862l-39.606-22.862V41.94l39.554-22.88Zm96.816 0 39.623 22.88v45.727c-13.188 7.625-26.38 15.243-39.572 22.862l-39.623-22.862V41.94l39.572-22.88Zm96.867 0 39.572 22.88v210.444c0 8.626-6.768 15.264-15.523 15.264-8.756 0-15.282-6.638-15.282-15.264v-65.564c-.257-11.478-17.348-11.478-17.603 0v146.443c0 8.627-6.638 15.266-15.394 15.266s-15.394-6.639-15.394-15.266v-125.23c0-4.867.2-7.82-2.939-10.177-14.704-8.614-30.16-17.5-45.469-26.369v-45.675c15.476-8.94 31.092-17.953 44.351-25.631 3.371-1.945 4.057-5.956 4.057-9.11v-49.13l39.624-22.88ZM56.986 33.553c-8.775.354-11.678 11.93-4.108 16.382L71.201 61.04c10.05 6.104 19.212-8.972 9.163-15.076L62.04 34.93a8.796 8.796 0 0 0-5.054-1.376ZM360.72 66.747c-4.895.027-8.81 4.08-8.715 8.973v35.154c0 11.747 17.62 11.747 17.62 0V75.72c.097-4.968-3.936-9.031-8.905-8.973ZM105.583 102.95l39.623 22.863v45.675L105.6 194.402c-13.2-7.632-26.398-15.268-39.59-22.914v-45.675l39.573-22.863Zm96.798 0 39.641 22.863v45.675l-39.641 22.931-39.555-22.915v-45.708l39.555-22.846Zm-.447 14.681c-8.735.397-11.613 11.906-4.091 16.365l18.307 11.121c10.051 6.074 19.162-9.002 9.111-15.076l-18.256-11.122a8.792 8.792 0 0 0-5.071-1.288Zm158.786 19.562c-4.86.027-8.762 4.027-8.715 8.887v8.836c0 11.746 17.62 11.746 17.62 0v-8.836a8.802 8.802 0 0 0-8.905-8.887Zm-206.695 49.559 39.589 22.829v83.201c0 8.685-6.717 15.402-15.402 15.402-8.686 0-15.403-6.717-15.403-15.402-.033-20.075.063-40.314-.034-60.321 0-4.704-4.302-8.108-8.922-8.028-4.695.108-8.492 3.85-8.629 8.544-.039 9.615-.018 19.306-.018 28.948 0 8.685-6.717 15.402-15.403 15.402-8.685 0-15.385-6.717-15.385-15.402V209.65l39.607-22.898Zm-96.867.018 39.64 22.897v45.692l-39.623 22.88-39.572-22.88v-45.726l39.555-22.863Zm193.648 0 39.606 22.863v45.726l-39.555 22.88-39.64-22.88v-45.726c13.184-7.642 26.382-15.26 39.589-22.863ZM56.711 201.433c-8.897.27-11.83 12.053-4.091 16.451l18.325 11.036c10.05 6.065 19.144-9.011 9.093-15.076l-18.307-11.036a8.819 8.819 0 0 0-5.02-1.377v.002Zm193.614 0c-8.897.27-11.83 12.053-4.092 16.451l18.325 11.036c10.051 6.065 19.145-9.011 9.094-15.076l-18.256-11.036a8.83 8.83 0 0 0-5.071-1.377v.002ZM127.208 325.787a8.792 8.792 0 0 0-7.271 4.486s-4.733 8.424-9.489 18.206c-5.278 9.448-10.125 19.753-10.125 29.223 0 14.964 12.317 27.298 27.28 27.298 14.964 0 27.281-12.334 27.281-27.298 0-10.616-5.901-20.089-10.125-29.223a389.811 389.811 0 0 0-9.489-18.206 8.802 8.802 0 0 0-8.062-4.486Zm.395 27.814c2.591 4.795 5.121 10.992 7.341 16.177 4.899 10.06 1.515 17.602-7.341 17.602-9.67 0-11.014-8.539-7.409-17.602 2.548-5.61 5.271-11.943 7.409-16.177Z"/><defs><linearGradient id="a" x1="254.214" x2="158.407" y1="69.677" y2="327.702" gradientUnits="userSpaceOnUse"><stop stop-color="#ECECEC" stop-opacity=".56"/><stop offset="1" stop-color="#EAEAEA" stop-opacity=".3"/></linearGradient></defs></svg>
