<svg xmlns="http://www.w3.org/2000/svg" fill="none" viewBox="0 0 20 20"><path fill="#D15D0D" d="M5.257 16.978h.407V15.52h2.523v1.458h.408V15.52h2.641v1.458h.409V15.52h2.81v1.458h.408V15.52H17.2v-.406h-2.337v-2.642H17.2v-.407h-2.337V9.658H17.2V9.25h-2.337V7.625h-.407v1.626h-2.811V7.625h-.409v1.626H8.595V7.625h-.408v1.626H5.663V7.625h-.406v1.626H2.563v.407h2.694v2.407H2.563v.408h2.694v2.64H2.563v.407h2.694v1.458Zm3.337-1.864v-2.642h2.642v2.642H8.594Zm5.862 0h-2.811v-2.642h2.81v2.642Zm0-5.456v2.407h-2.811V9.658h2.81Zm-3.22 0v2.407H8.595V9.658h2.641Zm-5.573 0h2.523v2.407H5.663V9.658Zm0 2.815h2.523v2.64H5.663v-2.64Z"/><path fill="#D15D0D" d="m19.98 1.713-2.825.003-.413.001v1.675a.814.814 0 0 1-.812.812h-.95a.813.813 0 0 1-.812-.812V1.72l-1.083.001v1.67a.815.815 0 0 1-.815.813h-.95a.814.814 0 0 1-.812-.812v-1.67l-1.15.003v1.667a.815.815 0 0 1-.814.812h-.95a.814.814 0 0 1-.813-.812V1.727H5.596v1.665a.814.814 0 0 1-.812.812h-.95a.814.814 0 0 1-.813-.812V1.731L0 1.733v17.89h18.572L20 19.62l-.02-17.907ZM18.572 18.2H1.43V6.77h17.142V18.2Z"/><path fill="#D15D0D" d="M3.834 3.628h.95a.203.203 0 0 0 .202-.204V.58a.203.203 0 0 0-.202-.204h-.95A.203.203 0 0 0 3.63.58v2.845c0 .113.091.204.204.204ZM7.594 3.628h.95a.203.203 0 0 0 .203-.204V.58a.204.204 0 0 0-.204-.204h-.95a.203.203 0 0 0-.202.204v2.845c0 .113.091.204.203.204ZM11.32 3.628h.95a.203.203 0 0 0 .205-.204V.58a.204.204 0 0 0-.205-.204h-.95a.203.203 0 0 0-.203.204v2.845c0 .113.091.204.204.204ZM14.98 3.628h.95a.203.203 0 0 0 .202-.204V.58a.202.202 0 0 0-.202-.204h-.95a.203.203 0 0 0-.203.204v2.845c0 .113.091.204.203.204Z"/></svg>
