<svg xmlns="http://www.w3.org/2000/svg" fill="none" viewBox="0 0 59 70"><g clip-path="url(#a)"><path fill="#E67A17" d="M29.5 70C45.792 70 59 56.792 59 40.5S45.792 11 29.5 11 0 24.208 0 40.5 13.208 70 29.5 70Z"/><g filter="url(#b)"><path fill="#fff" d="M48.104 32.624h-2.256c.064-2.208.128-3.728.192-4.56l-4.464.528L41 26c1.248-.256 2.992-.464 5.232-.624.256-2.56.48-4.352.672-5.376l2.592.576-.528 4.368h4.656V27.2l-4.992.576-.528 4.848Z"/></g><path fill="#fff" d="M44.875 33.333c0-1.196-.952-2.166-2.125-2.166h-2.125c-1.173 0-2.125.97-2.125 2.166h-1.063L35.9 30.198A2.122 2.122 0 0 0 33.999 29H26c-.805 0-1.54.464-1.9 1.198l-1.538 3.135h-7.438c-1.174 0-2.125.97-2.125 2.167v17.333C13 54.03 13.951 55 15.125 55h29.75C46.048 55 47 54.03 47 52.833V35.5c0-1.197-.952-2.167-2.125-2.167ZM30 51.75c-4.108 0-7.438-3.395-7.438-7.583 0-4.189 3.33-7.584 7.438-7.584s7.438 3.395 7.438 7.584c0 4.188-3.33 7.583-7.438 7.583Z"/><path fill="#fff" d="M30 48a4 4 0 1 0 0-8 4 4 0 0 0 0 8Z"/></g><defs><clipPath id="a"><path fill="#fff" d="M0 0h59v70H0z"/></clipPath><filter id="b" width="60.624" height="60.624" x="17" y="-4" color-interpolation-filters="sRGB" filterUnits="userSpaceOnUse"><feFlood flood-opacity="0" result="BackgroundImageFix"/><feColorMatrix in="SourceAlpha" result="hardAlpha" values="0 0 0 0 0 0 0 0 0 0 0 0 0 0 0 0 0 0 127 0"/><feOffset/><feGaussianBlur stdDeviation="12"/><feComposite in2="hardAlpha" operator="out"/><feColorMatrix values="0 0 0 0 0 0 0 0 0 0 0 0 0 0 0 0 0 0 0.25 0"/><feBlend in2="BackgroundImageFix" result="effect1_dropShadow_257_105"/><feBlend in="SourceGraphic" in2="effect1_dropShadow_257_105" result="shape"/></filter></defs></svg>
