<svg xmlns="http://www.w3.org/2000/svg" fill="none" viewBox="0 0 17 18"><path fill="#D46110" d="m2.25 4.5.911 11.846A1.25 1.25 0 0 0 4.407 17.5h8.185a1.25 1.25 0 0 0 1.247-1.154L14.75 4.5"/><path fill="#B83806" d="M12.25 6.5v8.75c0 .412-.338.75-.75.75a.752.752 0 0 1-.75-.75V6.5c0-.412.338-.75.75-.75s.75.338.75.75Zm-3 0v8.75c0 .412-.338.75-.75.75a.752.752 0 0 1-.75-.75V6.5c0-.412.338-.75.75-.75s.75.338.75.75Zm-3 0v8.75c0 .412-.338.75-.75.75a.752.752 0 0 1-.75-.75V6.5c0-.412.338-.75.75-.75s.75.338.75.75Zm9-3.5h-1l-.459-.764a1 1 0 0 0-.857-.486H4.066a1 1 0 0 0-.857.486L2.75 3h-1a.75.75 0 1 0 0 1.5h13.5a.75.75 0 1 0 0-1.5Z"/><path d="M12.593 17.75H4.408a1.507 1.507 0 0 1-1.496-1.385L2.001 4.519l.498-.038.912 11.846c.04.517.477.923.997.923h8.185c.519 0 .957-.405.997-.923L14.5 4.481l.498.038-.91 11.846a1.507 1.507 0 0 1-1.496 1.385ZM10 2a.25.25 0 0 1-.25-.25V1A.25.25 0 0 0 9.5.75h-2a.25.25 0 0 0-.25.25v.75a.25.25 0 1 1-.5 0V1A.75.75 0 0 1 7.5.25h2a.75.75 0 0 1 .75.75v.75A.25.25 0 0 1 10 2Z"/><path d="M15.25 4.75H1.75a1.001 1.001 0 0 1 0-2h.858l.386-.643A1.256 1.256 0 0 1 4.066 1.5h8.868c.437 0 .847.233 1.072.607l.386.643h.858a1.001 1.001 0 0 1 0 2Zm-13.5-1.5a.5.5 0 0 0 0 1h13.5a.5.5 0 0 0 0-1h-1a.25.25 0 0 1-.214-.121l-.459-.765A.754.754 0 0 0 12.934 2H4.066a.754.754 0 0 0-.643.364l-.458.765a.25.25 0 0 1-.215.121h-1Z"/><path fill="#1F212B" d="M11.375 3.25h-9a.125.125 0 0 1 0-.25h9a.125.125 0 0 1 0 .25Zm3 0h-1.25a.125.125 0 0 1 0-.25h1.25a.125.125 0 0 1 0 .25Zm-1.75 0h-.5a.125.125 0 0 1 0-.25h.5a.125.125 0 0 1 0 .25ZM8.5 16a.75.75 0 0 1-.75-.75V6.5a.75.75 0 0 1 1.5 0v6.375a.125.125 0 0 1-.25 0V6.5a.5.5 0 0 0-1 0v8.75a.5.5 0 0 0 1 0v-.875a.125.125 0 0 1 .25 0v.875a.75.75 0 0 1-.75.75Zm3 0a.75.75 0 0 1-.75-.75V8.875a.125.125 0 0 1 .25 0v6.375a.5.5 0 0 0 1 0V6.5a.5.5 0 0 0-1 0v.375a.125.125 0 0 1-.25 0V6.5a.75.75 0 0 1 1.5 0v8.75a.75.75 0 0 1-.75.75Z"/><path fill="#1F212B" d="M10.875 8.25a.125.125 0 0 1-.125-.125v-.5a.125.125 0 0 1 .25 0v.5a.125.125 0 0 1-.125.125ZM5.5 16a.75.75 0 0 1-.75-.75V6.5a.75.75 0 0 1 1.5 0v8.75a.75.75 0 0 1-.75.75Zm0-10a.5.5 0 0 0-.5.5v8.75a.5.5 0 0 0 1 0V6.5a.5.5 0 0 0-.5-.5Z"/></svg>
