<svg xmlns="http://www.w3.org/2000/svg" xmlns:xlink="http://www.w3.org/1999/xlink" fill="none" viewBox="0 0 29 32"><defs><path id="reuse-0" fill="#fff" d="M27.867 20.618H17.91a.988.988 0 0 1 0-1.976h9.957a.988.988 0 0 1 0 1.976ZM13.12 20.618H.988a.988.988 0 1 1 0-1.976H13.12a.988.988 0 1 1 0 1.976Z"/><path id="reuse-1" fill="#EC8318" stroke="#fff" d="M11.632 19.63a3.886 3.886 0 0 0 3.882 3.883 3.887 3.887 0 0 0 3.883-3.882 3.886 3.886 0 0 0-3.883-3.883 3.887 3.887 0 0 0-3.882 3.883Zm2.976 0c0-.5.407-.907.906-.907.5 0 .908.408.908.907a.909.909 0 0 1-1.814 0Z"/><path id="reuse-2" fill="#fff" d="M27.867 12.994H8.837a.988.988 0 1 1 0-1.975h19.03a.988.988 0 1 1 0 1.975ZM4.047 12.994H.987a.988.988 0 1 1 0-1.975h3.06a.988.988 0 1 1 0 1.975Z"/><path id="reuse-3" fill="#EC8318" stroke="#fff" d="M2.559 12.006A3.887 3.887 0 0 0 6.44 15.89a3.887 3.887 0 0 0 3.883-3.883 3.887 3.887 0 0 0-3.883-3.882 3.887 3.887 0 0 0-3.882 3.882Zm2.975 0c0-.5.408-.907.907-.907.5 0 .908.408.908.907a.909.909 0 0 1-1.814 0Z"/><path id="reuse-4" fill="#fff" d="M18.588 5.37H.988a.988.988 0 1 1 0-1.975h17.6a.988.988 0 1 1 0 1.976ZM27.867 5.37h-4.489a.988.988 0 1 1 0-1.975h4.489a.988.988 0 1 1 0 1.976Z"/><path id="reuse-5" fill="#EC8318" stroke="#fff" d="M17.1 4.383a3.886 3.886 0 0 0 3.883 3.883 3.887 3.887 0 0 0 3.883-3.883A3.887 3.887 0 0 0 20.983.5a3.886 3.886 0 0 0-3.882 3.883Zm2.976 0c0-.5.408-.907.907-.907.5 0 .907.407.907.907s-.407.907-.907.907a.909.909 0 0 1-.907-.907Z"/></defs><use xlink:href="#reuse-0"/><use xlink:href="#reuse-1"/><use xlink:href="#reuse-2"/><use xlink:href="#reuse-3"/><use xlink:href="#reuse-4"/><use xlink:href="#reuse-5"/><use xlink:href="#reuse-0"/><use xlink:href="#reuse-1"/><use xlink:href="#reuse-2"/><use xlink:href="#reuse-3"/><use xlink:href="#reuse-4"/><use xlink:href="#reuse-5"/><path fill="#fff" d="M27.867 27.87H8.837a.988.988 0 1 1 0-1.975h19.03a.988.988 0 1 1 0 1.976ZM4.047 27.87H.987a.988.988 0 1 1 0-1.975h3.06a.988.988 0 1 1 0 1.976Z"/><path fill="#EC8318" stroke="#fff" d="M2.559 26.883a3.887 3.887 0 0 0 3.882 3.883 3.887 3.887 0 0 0 3.883-3.883A3.887 3.887 0 0 0 6.441 23a3.887 3.887 0 0 0-3.882 3.883Zm2.975 0c0-.5.408-.907.907-.907.5 0 .908.407.908.907s-.408.907-.908.907a.909.909 0 0 1-.907-.907Z"/></svg>
