<svg xmlns="http://www.w3.org/2000/svg" fill="none" viewBox="0 0 26 20"><g clip-path="url(#a)"><g clip-path="url(#b)"><path fill="#012169" d="M-.448-.222h26.896v19.944H-.448V-.222Z"/><path fill="#fff" d="m2.704-.222 10.254 7.52L23.17-.221h3.278v2.576L16.362 9.792l10.086 7.395v2.535h-3.362L13 12.284 2.956 19.722H-.448v-2.493L9.596 9.833-.448 2.437V-.221h3.152Z"/><path fill="#C8102E" d="m17.37 11.454 9.078 6.606v1.662L15.06 11.453h2.312Zm-7.732.83.252 1.455-8.069 5.983h-2.27l10.087-7.438ZM26.448-.222v.125L15.984 7.714l.084-1.828 8.279-6.108h2.101Zm-26.896 0L9.596 7.091H7.074L-.448 1.523V-.222Z"/><path fill="#fff" d="M9.68-.222v19.944h6.724V-.222H9.68ZM-.448 6.426v6.648h26.896V6.426H-.448Z"/><path fill="#C8102E" d="M-.448 7.797v3.989h26.896V7.797H-.448ZM11.025-.222v19.944h4.034V-.222h-4.034Z"/></g></g><defs><clipPath id="a"><rect width="26" height="19.5" fill="#fff" rx="5"/></clipPath><clipPath id="b"><path fill="#fff" d="M-.448-.222h26.897v19.943H-.448z"/></clipPath></defs></svg>
