<svg xmlns="http://www.w3.org/2000/svg" fill="none" viewBox="0 0 23 23"><path fill="#212121" d="M2.127 2.127a.719.719 0 0 0-.07.936l.07.08L5.994 7.01a9.57 9.57 0 0 0-3.79 5.51.719.719 0 0 0 1.394.35 8.136 8.136 0 0 1 3.43-4.825l1.735 1.734a3.833 3.833 0 0 0 5.42 5.42l5.674 5.674a.719.719 0 0 0 1.085-.936l-.07-.08-2.928-2.93-2.93-2.93.001-.002-1.15-1.147-2.75-2.75.002-.001-2.761-2.758v-.002L7.272 6.254 3.144 2.127a.719.719 0 0 0-1.017 0Zm7.652 8.67 3.388 3.387a2.396 2.396 0 0 1-3.388-3.388ZM11.5 5.27c-.959 0-1.889.142-2.768.407l1.185 1.185a8.15 8.15 0 0 1 9.487 6.01.719.719 0 0 0 1.394-.348A9.586 9.586 0 0 0 11.5 5.271Zm.187 3.363 3.643 3.642a3.836 3.836 0 0 0-3.643-3.642Z"/></svg>
