<svg xmlns="http://www.w3.org/2000/svg" xmlns:xlink="http://www.w3.org/1999/xlink" fill="none" viewBox="0 0 16 16"><defs><path id="reuse-0" fill="#fff" d="M0 0h16v16H0z"/></defs><g clip-path="url(#a)"><path fill="#E67A17" d="M8 16A8 8 0 1 0 8 0a8 8 0 0 0 0 16Z"/><path fill="#D56211" d="M8 0v16A8 8 0 1 0 8 0Z"/><g fill="#FDFDFD" clip-path="url(#b)"><path d="M8.07 5.75a1.05 1.05 0 1 0 0-2.1 1.05 1.05 0 0 0 0 2.1ZM8.07 12.632a.63.63 0 1 0 0-1.261.63.63 0 0 0 0 1.26ZM5.489 6.715a.946.946 0 1 0 0-1.892.946.946 0 0 0 0 1.891ZM10.652 11.457a.525.525 0 1 0 0-1.05.525.525 0 0 0 0 1.05ZM4.42 9.191a.84.84 0 1 0 0-1.68.84.84 0 0 0 0 1.68ZM11.721 8.77a.42.42 0 1 0 0-.84.42.42 0 0 0 0 .84ZM4.969 10.412a.735.735 0 1 0 1.038 1.04.735.735 0 0 0-1.038-1.04ZM10.652 6.084a.315.315 0 1 0 0-.63.315.315 0 0 0 0 .63Z"/></g><g clip-path="url(#c)"><path fill="#6DC180" d="M8 16A8 8 0 1 0 8 0a8 8 0 0 0 0 16Z"/><path fill="#5CA15D" d="M8 0v16A8 8 0 1 0 8 0Z"/><path fill="#FDFDFD" d="M6.857 11.498 3.394 8.035l1.212-1.212 2.251 2.25 4.251-4.25 1.212 1.212-5.463 5.463Z"/><path fill="#DFDFE1" d="m8 10.355 4.32-4.32-1.212-1.212L8 7.93v2.424Z"/></g></g><defs><clipPath id="a"><use xlink:href="#reuse-0"/></clipPath><clipPath id="b"><path fill="#fff" d="M3.369 3.65h8.982v8.981H3.369z"/></clipPath><clipPath id="c"><use xlink:href="#reuse-0"/></clipPath></defs></svg>
