<svg width="82" height="82" viewBox="0 0 82 82" fill="none" xmlns="http://www.w3.org/2000/svg">
<path d="M41 0L76.507 20.5V61.5L41 82L5.49296 61.5V20.5L41 0Z" fill="#FFF0E5"/>
<path d="M52 33.6667C52 30.7494 50.8411 27.9515 48.7782 25.8886C46.7153 23.8257 43.9174 22.6667 41 22.6667C38.0826 22.6667 35.2847 23.8257 33.2218 25.8886C31.1589 27.9515 30 30.7494 30 33.6667C30 46.5001 24.5 50.1667 24.5 50.1667H57.5C57.5 50.1667 52 46.5001 52 33.6667Z" stroke="#2D2D2D" stroke-width="2" stroke-linecap="round" stroke-linejoin="round"/>
<path d="M44.1716 57.5C43.8493 58.0556 43.3867 58.5169 42.8301 58.8375C42.2734 59.1581 41.6423 59.3268 41 59.3268C40.3576 59.3268 39.7265 59.1581 39.1699 58.8375C38.6133 58.5169 38.1506 58.0556 37.8283 57.5" stroke="#2D2D2D" stroke-width="2" stroke-linecap="round" stroke-linejoin="round"/>
</svg>
