<svg width="16" height="16" viewBox="0 0 16 16" fill="none" xmlns="http://www.w3.org/2000/svg">
<g clip-path="url(#clip0_260_74)">
<path d="M8 16C12.4183 16 16 12.4183 16 8C16 3.58172 12.4183 0 8 0C3.58172 0 0 3.58172 0 8C0 12.4183 3.58172 16 8 16Z" fill="#E67A17"/>
<path d="M8 0V16C12.4183 16 16 12.4183 16 8C16 3.58172 12.4183 0 8 0Z" fill="#D56211"/>
<g clip-path="url(#clip1_260_74)">
<path d="M8.07068 5.75042C8.65095 5.75042 9.12135 5.28004 9.12135 4.69979C9.12135 4.11955 8.65095 3.64917 8.07068 3.64917C7.49042 3.64917 7.02002 4.11955 7.02002 4.69979C7.02002 5.28004 7.49042 5.75042 8.07068 5.75042Z" fill="#FDFDFD"/>
<path d="M8.07027 12.6316C8.41839 12.6316 8.7006 12.3494 8.7006 12.0013C8.7006 11.6532 8.41839 11.371 8.07027 11.371C7.72215 11.371 7.43994 11.6532 7.43994 12.0013C7.43994 12.3494 7.72215 12.6316 8.07027 12.6316Z" fill="#FDFDFD"/>
<path d="M5.48863 6.7145C6.01091 6.7145 6.4343 6.29113 6.4343 5.76887C6.4343 5.24661 6.01091 4.82324 5.48863 4.82324C4.96636 4.82324 4.54297 5.24661 4.54297 5.76887C4.54297 6.29113 4.96636 6.7145 5.48863 6.7145Z" fill="#FDFDFD"/>
<path d="M10.6523 11.4569C10.9424 11.4569 11.1776 11.2217 11.1776 10.9316C11.1776 10.6414 10.9424 10.4062 10.6523 10.4062C10.3622 10.4062 10.127 10.6414 10.127 10.9316C10.127 11.2217 10.3622 11.4569 10.6523 11.4569Z" fill="#FDFDFD"/>
<path d="M4.41943 9.19096C4.88353 9.19096 5.25975 8.81475 5.25975 8.35067C5.25975 7.88659 4.88353 7.51038 4.41943 7.51038C3.95533 7.51038 3.5791 7.88659 3.5791 8.35067C3.5791 8.81475 3.95533 9.19096 4.41943 9.19096Z" fill="#FDFDFD"/>
<path d="M11.7213 8.77037C11.9532 8.77037 12.1413 8.58234 12.1413 8.3504C12.1413 8.11845 11.9532 7.93042 11.7213 7.93042C11.4893 7.93042 11.3013 8.11845 11.3013 8.3504C11.3013 8.58234 11.4893 8.77037 11.7213 8.77037Z" fill="#FDFDFD"/>
<path d="M4.96895 10.4125C4.68157 10.6999 4.68157 11.1648 4.96895 11.4522C5.25599 11.7396 5.72167 11.7396 6.00871 11.4522C6.29609 11.1648 6.29609 10.6999 6.00871 10.4125C5.72167 10.1248 5.25634 10.122 4.96895 10.4125Z" fill="#FDFDFD"/>
<path d="M10.6519 6.08382C10.8259 6.08382 10.9669 5.9428 10.9669 5.76884C10.9669 5.59488 10.8259 5.45386 10.6519 5.45386C10.4779 5.45386 10.3369 5.59488 10.3369 5.76884C10.3369 5.9428 10.4779 6.08382 10.6519 6.08382Z" fill="#FDFDFD"/>
</g>
<g clip-path="url(#clip2_260_74)">
<path d="M8 16C12.4183 16 16 12.4183 16 8C16 3.58172 12.4183 0 8 0C3.58172 0 0 3.58172 0 8C0 12.4183 3.58172 16 8 16Z" fill="#6DC180"/>
<path d="M8 0V16C12.4183 16 16 12.4183 16 8C16 3.58172 12.4183 0 8 0Z" fill="#5CA15D"/>
<path d="M6.85726 11.4979L3.39404 8.03464L4.60617 6.82251L6.85726 9.07354L11.1083 4.82251L12.3204 6.03463L6.85726 11.4979Z" fill="#FDFDFD"/>
<path d="M8 10.355L12.3203 6.03463L11.1082 4.82251L8 7.9307V10.355Z" fill="#DFDFE1"/>
</g>
</g>
<defs>
<clipPath id="clip0_260_74">
<rect width="16" height="16" fill="white"/>
</clipPath>
<clipPath id="clip1_260_74">
<rect width="8.98246" height="8.98246" fill="white" transform="translate(3.36865 3.64917)"/>
</clipPath>
<clipPath id="clip2_260_74">
<rect width="16" height="16" fill="white"/>
</clipPath>
</defs>
</svg>
