<svg xmlns="http://www.w3.org/2000/svg" fill="none" viewBox="0 0 318 331"><path fill="#F5F5F5" d="M12.3 188.3A47.7 47.7 0 0 0 39.8 232c24 9.4 40.1-14 54.3-30.2 10.8-12.4 24.5-23.8 40.4-26 9.3-1.3 18.5.5 27.8 1.8 23.5 3.6 47.4 5.8 70.5.5 23-5.4 45.3-18.7 57.5-39.8a51 51 0 0 0 6.4-17.2 61.5 61.5 0 0 0-8-38.9A104 104 0 0 0 251 41.7a69.6 69.6 0 0 0-49-10.5c-24 5-41.5 25.6-57 45.5-15 19.7-31.7 40.8-55.3 47.6-7.3 2-15 2.4-22.1 4.5a81.3 81.3 0 0 0-51.6 45 45 45 0 0 0-3.7 14.5Z"/><path fill="#CD580E" d="M290 136.7a663.7 663.7 0 0 0-10.4-44c-1.4-2-4-6.6-52.2-17.8a794.2 794.2 0 0 0-61-12.1c-2-.3-4.4-.5-7.1-.6l-3.3-2.5a32.3 32.3 0 0 0-28.4-14.2L80 48.3c-6 .2-11 3.8-13.6 9.5a17 17 0 0 0 1.6 17L75 85c1.7 12.6 8.8 36.6 19.4 71l3.8 12.5c.5 2.1 2.3 3.9 5 5.4 3 12.7 16.6 72.6 23.4 84.3a12 12 0 0 0 4 4.1 11 11 0 0 0-4.3 9.1c0 5.8 4 10.6 9 10.6s9-4.6 9-10.6c0-1.4-.2-2.6-.6-3.8 12.3 3.4 30.6 5.9 53.2 8.6a291.7 291.7 0 0 1 35.3 5.4c-1 1.7-1.5 3.6-1.5 5.7 0 5.8 4 10.6 9 10.6s9-4.7 9-10.6c0-2.2-.5-4.3-1.6-6a66 66 0 0 0 20.4-6.4c-.3 1-.5 2.5-.5 3.7 0 5.8 4 10.6 9 10.6s9-4.7 9-10.6c0-5.4-3.3-9.7-7.6-10.5 1.8-2 3.3-3.9 4-5.8.6-1.6.3-3.3-.5-4.8-3.4-6-21.3-9.3-70-15.2-16.8-2-34.1-4.1-37.4-5.8-4.4-1.9-10-25.5-12.5-52.4 7.3.7 15.3 1.4 24 2 14 1.2 26.2 2.2 31.5 3.3 7.3 1.3 18.5 2 30.1 2 17.6 0 36.2-1.6 43.3-5 5.3-2.4 7.6-12 0-49.7Zm-64.5 45.9-2-9.7c3.5 0 8.5-.4 14.2-.8l1.5 11.3c-5-.1-9.6-.4-13.7-.8Zm-81.6-8.1-2.3-12.3L162 165l2.1 11.4-20.1-2Zm-38.2-8.4-2.7-9.4 14.7 2 2 12c-11-2.2-13.4-4.1-14-4.6Zm16 5-2.2-12c6 .7 12.9 1.7 20.2 2.8l2.2 12.3-7.7-1c-5-.7-9.1-1.4-12.4-2Zm-33.9-65.3 20.9 3.8 4 22.8-18-2.6-6.9-24Zm186.7-2.4c1.4 5.1 2.6 10.1 3.8 15l-16.5 1.4-2.1-15.8 14.8-.6Zm-119.2 14.4a614 614 0 0 0 23.6 3.6l3.7 20.4-23.6-3-3.7-21Zm1.8 20.7-20.2-2.8-4-21.8 20.3 3.5 4 21Zm23.9-16.9c9.4 1.3 17.9 2.4 24.5 2.8l4.2 20.5-25-2.8-3.7-20.5Zm32.5 3.2c4.9 0 11.2-.3 18.1-.7l2.8 22c-5.3.2-10.9 0-16.6-.3l-4.3-21Zm20-.8 26.5-2 2.7 21.7c-7.6 1.1-16.6 2-26.5 2.4l-2.7-22.1Zm28.5-2.2 16.6-1.5L283 140c-3.7 1-10 2.3-18.2 3.6l-2.7-21.8Zm-4.3-17.8 2 16c-8.2.7-17.8 1.5-26.5 2l-2.1-17 26.6-1Zm-28.6 1 2.1 17.2c-7 .4-13.4.7-18.3.7l-3.6-17c6.4-.4 13.2-.5 19.8-.8Zm-27.8 1h.4l3.4 16.5c-6.6-.6-15-1.5-24.4-3l-2.8-15.4c9.3 1.3 17.5 2 23.4 2Zm-25.5-2.1 2.8 15.4-23.6-3.6-2.8-15.6c8.1 1.4 16.2 2.8 23.6 3.8Zm-25.7-4 2.8 15.5c-6.9-1-13.8-2.3-20.3-3.4l-2.9-15.7c6.8 1 13.7 2.3 20.4 3.6Zm-22.4-4.2 3 15.9-20.3-3.6-3-16.3c6.3 1.4 13.2 2.6 20.3 4Zm-22.4-4.4 3 16.3-21-4c-1.7-6.5-3.2-12.3-4-16.9 5 1.2 12.9 2.8 22 4.6Zm5.3 18.8 20.3 3.5 4 21.8c-7.3-1-14.2-1.9-20.2-2.9l-4-22.4Zm24.7 27.4 4 22.3L119 157l-4-22.2 20.2 2.8Zm6 22.6-3.9-22.3c6.5 1 13.4 1.8 20.3 2.7l4 22.4c-7-.8-13.8-1.8-20.3-2.8Zm18.2-19.3 23.6 3 4.1 22.7-23.6-3.3-4-22.4Zm25.5 3.3 25.1 3 5 23.2-25.9-3.4L185 144Zm38 26.8-4.8-23.2c4.4.3 8.8.4 13 .4h3.3l2.8 22c-5.8.5-10.9.8-14.3.8Zm13.5-22.8c9.8-.3 18.8-1.2 26.5-2.3l2.8 22-26.5 2.3-2.8-22Zm28.4-2.6c8-1.2 14.4-2.6 18.3-3.6a277 277 0 0 1 3.5 23.7l-19 2-2.8-22.1Zm5.5-50c-13.6.5-45.1 1.6-67.3 2.6-22.5 1-100.1-15.3-120-19.6 6.6-4.6 47.1-9.5 73.6-8.4 1 .4 1.9.4 2.7.1 2.1.1 4.2.3 6 .6 20 2.4 89.3 17.3 105 24.8ZM73.5 61.2c1.4-2.9 4-4.7 7-5l47.6-2.7c7.4-.4 14.7 2.7 19.8 8.5-10 .2-21.6.7-32.4 1.7-10.8 1-32 3.2-38.7 10l-2.5-3.7a8.8 8.8 0 0 1-.8-8.8Zm21.8 70.7 17.7 2.7 4 22.2c-6.6-1-12-1.7-15-2l-.4-1.2c-1.2-5-3.7-12.8-6.3-21.7Zm61.2 77.6c4.8 27.3 9.8 33 13.8 34.7.2.2.5.3.9.4a11 11 0 0 0-4.4 9.1c0 5.8 4 10.6 9 10.6s9-4.6 9-10.6c0-2.5-.8-4.8-2-6.6 6.7 1 15.7 2.2 27.2 3.6 19.6 2.3 55.1 6.8 63 10.8-5 6.8-27.2 16-44.4 11.7-6.5-1.5-17.8-3-30.8-4.6-21.2-2.6-60.8-7.6-64.5-14.2-5-8.5-16-53.4-21.2-76.8 8.9 2.5 22.3 4.4 41 6.2a331 331 0 0 0 3.4 25.7Zm9.5-32.7-2-11.3c8.3 1 16.2 2.2 23.6 3.3l1.9 10-3.7-.2c-6.5-.7-13.2-1.3-19.8-1.8Zm25.2 2-1.7-9.9 26 3.5 1.8 9a422 422 0 0 0-26.1-2.6Zm49.8 4.7-1.4-11.4c8.3-.7 17.8-1.5 26.5-2.4l1.5 13c-8 .7-17.6 1-26.6.8Zm45.3-4a65 65 0 0 1-16.7 3l-1.6-12.9 19-2c.4 6.4.1 10.4-.7 12Z"/><path fill="#338E1C" d="M83 252c-.7-23.6 8.6-31 16.6-31 7.3-.2 16.2.8 24.7-5.2.8-.5.8-1.8 0-2.3a34 34 0 0 0-19.4-5.2c-7.8 1-13.9 6.8-17.5 10.6-.9 1-2.5-.2-1.8-1.5 2.6-6.5 7-8.9 10.9-12.6 4.6-4.4 12.2-7.2 17.2-11a68.2 68.2 0 0 0 17-24c.5-.9-.2-2-1.2-2-8.4.6-13.7 2.7-20.6 9-5.8 5.5-15.5 21.5-20.4 26.9-1 1-2.5.1-2-1.1 3-11 14.2-25.2 19.1-37.4a49.5 49.5 0 0 0 .3-39.8c-.4-1-2-1.1-2.3 0-3.2 15.3-14.3 18.3-18.1 55.8-.3 2.6-.8 8.8-1.6 9.5-1.2 1.1-1.6 0-2.3-1.5-3.8-10.5-.8-65-29.3-83-1-.6-2.2.3-1.8 1.4C59 139.4 38.3 143.4 79 201l.7 1c1 3-.8 3.5-1.8 3.4-5.1-.7-25-38-64.8-33.2-1 0-1.4 1.3-.7 2.2 9.6 11 19.8 21.6 32.8 27.3 8 3.6 18.6 4.2 26 9a19.7 19.7 0 0 1 8 21c-.3 1.1-1.7 1.6-2 .5a36.4 36.4 0 0 0-19.5-14.1c-7.5-2.4-13.5-2-21-2.2-1 0-1.6 1.2-1 2 15.5 23 37.9 4.9 41 32.2 0 .4.4 1 .8 1 4.4 1.3 8.7 2.6 8.5-2.3l-3 3Z"/><path fill="#DA3404" d="m101.8 248.4-43.9-1.5c-2-.2-1.9 1.6-1.6 3.6l8 42c.2 1.5 1.7 2.8 3.1 2.6l21.5.6c1.3-.1 2.3-1.1 2.7-2.4l11-43.1c.5-.8 0-1.7-.8-1.8Z"/></svg>
